# This file uses centimeters as units for non-parametric coordinates.

mtllib Cardboard Box Open.mtl
g default
v 2.687006 -2.000000 -2.687006
v -2.687006 -2.000000 -2.687006
v -2.687005 -2.000000 2.687006
v 2.687006 -2.000000 2.687005
v 2.687006 2.000000 -2.687006
v -2.687006 2.000000 -2.687006
v -2.687005 2.000000 2.687006
v 2.687006 2.000000 2.687005
v 2.828427 2.000000 -2.828427
v -2.828427 2.000000 -2.828427
v -2.828427 2.000000 2.828427
v 2.828428 2.000000 2.828427
v 2.828427 -2.000000 -2.828427
v -2.828427 -2.000000 -2.828427
v -2.828427 -2.000000 2.828427
v 2.828428 -2.000000 2.828427
v 2.687006 -1.855342 2.687005
v 2.687006 -1.855342 -2.687006
v -2.687006 -1.855342 -2.687006
v -2.687005 -1.855342 2.687006
v 2.687006 2.080785 -2.687006
v -2.687006 2.080785 -2.687006
v 2.828427 2.080785 -2.828427
v -2.828427 2.080785 -2.828427
v -2.687005 2.080785 2.687006
v -2.828427 2.080785 2.828427
v 2.687006 2.080785 2.687005
v 2.828428 2.080785 2.828427
v -2.687006 2.000000 -2.687006
v -2.687005 2.000000 2.687006
v -2.687006 2.080785 -2.687006
v -2.687005 2.080785 2.687006
v -0.375997 2.334210 -2.687006
v -0.375997 2.334210 2.687005
v -0.375997 2.414996 -2.687006
v -0.375997 2.414996 2.687005
v 2.687006 2.000000 2.687005
v 2.687006 2.000000 -2.687006
v 2.687006 2.080785 2.687005
v 2.687006 2.080785 -2.687006
v 0.045832 2.295904 2.687005
v 0.045832 2.295904 -2.687005
v 0.045832 2.376689 2.687005
v 0.045832 2.376689 -2.687005
v 2.687005 4.096961 -4.022158
v -2.687005 4.096961 -4.022158
v 2.828426 4.096961 -4.163580
v -2.828427 4.096961 -4.163579
v -2.687005 4.096962 3.783360
v 2.687005 4.096962 3.783358
v -2.828427 4.096962 3.924781
v 2.828427 4.096962 3.924781
v 2.687006 -2.000000 -2.687006
v 2.687006 -2.000000 -2.687006
v 2.687006 -2.000000 -2.687006
v 2.687006 -2.000000 -2.687006
v -2.687006 -2.000000 -2.687006
v -2.687006 -2.000000 -2.687006
v -2.687006 -2.000000 -2.687006
v -2.687006 -2.000000 -2.687006
v -2.687006 -2.000000 -2.687006
v -2.687006 -2.000000 -2.687006
v -2.687005 -2.000000 2.687006
v -2.687005 -2.000000 2.687006
v -2.687005 -2.000000 2.687006
v -2.687005 -2.000000 2.687006
v -2.687005 -2.000000 2.687006
v -2.687005 -2.000000 2.687006
v 2.687006 -2.000000 2.687005
v 2.687006 -2.000000 2.687005
v 2.687006 -2.000000 2.687005
v 2.687006 -2.000000 2.687005
v 2.687006 -1.855342 2.687005
v 2.687006 -1.855342 2.687005
v 2.687006 -1.855342 2.687005
v 2.687006 -1.855342 2.687005
v 2.687006 -1.855342 -2.687006
v 2.687006 -1.855342 -2.687006
v 2.687006 -1.855342 -2.687006
v 2.687006 -1.855342 -2.687006
v -2.687006 -1.855342 -2.687006
v -2.687006 -1.855342 -2.687006
v -2.687006 -1.855342 -2.687006
v -2.687006 -1.855342 -2.687006
v -2.687006 -1.855342 -2.687006
v -2.687006 -1.855342 -2.687006
v -2.687005 -1.855342 2.687006
v -2.687005 -1.855342 2.687006
v -2.687005 -1.855342 2.687006
v -2.687005 -1.855342 2.687006
v -2.687005 -1.855342 2.687006
v -2.687005 -1.855342 2.687006
vt 0.597178 0.281253
vt 0.861817 0.132578
vt 0.861969 0.145637
vt 0.596946 0.292892
vt 0.164715 0.187739
vt 0.597178 0.281253
vt 0.596946 0.292892
vt 0.163814 0.200278
vt 0.388980 0.009085
vt 0.164715 0.187739
vt 0.163814 0.200278
vt 0.388326 0.023280
vt 0.597178 0.281253
vt 0.164715 0.187739
vt 0.163814 0.200278
vt 0.596946 0.292892
vt 0.689528 0.812433
vt 0.979723 0.735830
vt 1.000000 0.735040
vt 0.693505 0.815330
vt 0.138213 0.556513
vt 0.590381 0.622369
vt 0.594918 0.626337
vt 0.119999 0.557491
vt 0.241170 0.637653
vt 0.018830 0.739526
vt 0.000000 0.740303
vt 0.232370 0.632396
vt 0.866272 0.517443
vt 0.369634 0.429366
vt 0.362186 0.422853
vt 0.886427 0.516362
vt 0.595054 0.619353
vt 0.886316 0.508387
vt 0.881073 0.131054
vt 0.601504 0.286908
vt 0.120561 0.549884
vt 0.147237 0.189122
vt 0.362598 0.414058
vt 0.382030 0.000000
vt 0.861817 0.132578
vt 0.597178 0.281253
vt 0.597178 0.281253
vt 0.164715 0.187739
vt 0.164715 0.187739
vt 0.388980 0.009085
vt 0.388980 0.009085
vt 0.861817 0.132578
vt 0.861969 0.145637
vt 0.388326 0.023280
vt 0.370037 0.420627
vt 0.866180 0.509478
vt 0.596946 0.292892
vt 0.861969 0.145637
vt 0.590521 0.615350
vt 0.163814 0.200278
vt 0.596946 0.292892
vt 0.138760 0.548897
vt 0.388326 0.023280
vt 0.163814 0.200278
vt 0.861817 0.132578
vt 0.388980 0.009085
vt 0.164715 0.187739
vt 0.597178 0.281253
vt 0.388980 0.009085
vt 0.388326 0.023280
vt 0.163814 0.200278
vt 0.164715 0.187739
vt 0.388326 0.023280
vt 0.861969 0.145637
vt 0.596946 0.292892
vt 0.163814 0.200278
vt 0.861969 0.145637
vt 0.861817 0.132578
vt 0.597178 0.281253
vt 0.596946 0.292892
vt 0.227630 0.531911
vt 0.699593 0.604055
vt 0.699537 0.611504
vt 0.227128 0.540034
vt 0.721038 0.592595
vt 0.245790 0.518466
vt 0.245299 0.526671
vt 0.721000 0.600113
vt 0.590521 0.615350
vt 0.138760 0.548897
vt 0.590381 0.622369
vt 0.138213 0.556513
vt 0.370037 0.420627
vt 0.866180 0.509478
vt 0.369634 0.429366
vt 0.866272 0.517443
vn -0.000000 0.000000 1.000000
vn -0.000000 0.000000 1.000000
vn -0.000000 0.000000 1.000000
vn -0.000000 0.000000 1.000000
vn 1.000000 0.000000 -0.000000
vn 1.000000 0.000000 -0.000000
vn 1.000000 0.000000 -0.000000
vn 1.000000 0.000000 -0.000000
vn 0.000000 0.000000 -1.000000
vn 0.000000 0.000000 -1.000000
vn 0.000000 0.000000 -1.000000
vn 0.000000 0.000000 -1.000000
vn -1.000000 0.000000 0.000000
vn -1.000000 0.000000 0.000000
vn -1.000000 0.000000 0.000000
vn -1.000000 0.000000 0.000000
vn -0.000001 1.000000 -0.000001
vn -0.000001 1.000000 -0.000001
vn -0.000001 1.000000 -0.000001
vn -0.000001 1.000000 -0.000001
vn -0.000000 1.000000 -0.000000
vn -0.000000 1.000000 -0.000000
vn -0.000000 1.000000 -0.000000
vn -0.000000 1.000000 -0.000000
vn -0.000001 1.000000 -0.000001
vn -0.000001 1.000000 -0.000001
vn -0.000001 1.000000 -0.000001
vn -0.000001 1.000000 -0.000001
vn -0.000000 1.000000 -0.000000
vn -0.000000 1.000000 -0.000000
vn -0.000000 1.000000 -0.000000
vn -0.000000 1.000000 -0.000000
vn 0.000000 0.000000 -1.000000
vn 0.000000 0.000000 -1.000000
vn 0.000000 0.000000 -1.000000
vn 0.000000 0.000000 -1.000000
vn -1.000000 0.000000 0.000000
vn -1.000000 0.000000 0.000000
vn -1.000000 0.000000 0.000000
vn -1.000000 0.000000 0.000000
vn 0.000000 0.000000 1.000000
vn 0.000000 0.000000 1.000000
vn 0.000000 0.000000 1.000000
vn 0.000000 0.000000 1.000000
vn 1.000000 0.000000 -0.000000
vn 1.000000 0.000000 -0.000000
vn 1.000000 0.000000 -0.000000
vn 1.000000 0.000000 -0.000000
vn 0.000000 -1.000000 0.000000
vn 0.000000 -1.000000 0.000000
vn 0.000000 -1.000000 0.000000
vn 0.000000 -1.000000 0.000000
vn 0.000000 -1.000000 0.000000
vn 0.000000 -1.000000 0.000000
vn 0.000000 -1.000000 0.000000
vn 0.000000 -1.000000 0.000000
vn 0.000000 -1.000000 0.000000
vn 0.000000 -1.000000 0.000000
vn 0.000000 -1.000000 0.000000
vn 0.000000 -1.000000 0.000000
vn 0.000000 -1.000000 0.000000
vn 0.000000 -1.000000 0.000000
vn 0.000000 -1.000000 0.000000
vn 0.000000 -1.000000 0.000000
vn -1.000000 0.000000 0.000000
vn -1.000000 0.000000 0.000000
vn -1.000000 0.000000 0.000000
vn -1.000000 0.000000 0.000000
vn 0.000000 0.000000 1.000000
vn 0.000000 0.000000 1.000000
vn 0.000000 0.000000 1.000000
vn 0.000000 0.000000 1.000000
vn 1.000000 0.000000 -0.000000
vn 1.000000 0.000000 -0.000000
vn 1.000000 0.000000 -0.000000
vn 1.000000 0.000000 -0.000000
vn -0.000000 0.000000 -1.000000
vn -0.000000 0.000000 -1.000000
vn -0.000000 0.000000 -1.000000
vn -0.000000 0.000000 -1.000000
vn -0.000000 -1.000000 -0.000000
vn -0.000000 -1.000000 -0.000000
vn -0.000000 -1.000000 -0.000000
vn -0.000000 -1.000000 -0.000000
vn 0.000000 0.000000 1.000000
vn 0.000000 0.000000 1.000000
vn 0.000000 0.000000 1.000000
vn 0.000000 0.000000 1.000000
vn 0.000000 1.000000 0.000000
vn 0.000000 1.000000 0.000000
vn 0.000000 1.000000 0.000000
vn 0.000000 1.000000 0.000000
vn 0.000000 0.000000 -1.000000
vn 0.000000 0.000000 -1.000000
vn 0.000000 0.000000 -1.000000
vn 0.000000 0.000000 -1.000000
vn 0.000000 0.537082 0.843530
vn 0.000000 0.537082 0.843530
vn -0.000000 -0.537082 -0.843530
vn -0.000000 -0.537082 -0.843530
vn 1.000000 0.000000 -0.000000
vn 1.000000 0.000000 -0.000000
vn 1.000000 0.000000 -0.000000
vn 1.000000 0.000000 -0.000000
vn -1.000000 0.000000 0.000001
vn -1.000000 0.000000 0.000001
vn -0.000000 0.463326 -0.886188
vn -0.000000 0.463326 -0.886188
vn 0.000000 -0.463326 0.886188
vn 0.000000 -0.463326 0.886188
vn -1.000000 0.000000 0.000000
vn -1.000000 0.000000 0.000000
vn -1.000000 0.000000 0.000000
vn -1.000000 0.000000 0.000000
vn 1.000000 0.000000 0.000000
vn 1.000000 0.000000 0.000000
vn 0.000000 0.000000 0.000000
vn 0.000000 0.000000 0.000000
vn 0.000000 0.000000 0.000000
vn 0.000000 0.000000 0.000000
vn 0.000000 0.000000 0.000000
vn 0.000000 0.000000 0.000000
vn 0.000000 0.000000 0.000000
vn 0.000000 0.000000 0.000000
vn 0.000000 0.000000 0.000000
vn 0.000000 0.000000 0.000000
vn 0.000000 0.000000 0.000000
vn 0.000000 0.000000 0.000000
vn 0.000000 0.000000 0.000000
vn 0.000000 0.000000 0.000000
vn 0.000000 0.000000 0.000000
vn 0.000000 0.000000 0.000000
vn 0.143128 -0.989704 -0.000000
vn 0.143128 -0.989704 -0.000000
vn 0.143128 -0.989704 -0.000000
vn 0.143128 -0.989704 -0.000000
vn 0.000000 0.000000 -1.000000
vn 0.000000 0.000000 -1.000000
vn 0.000000 0.000000 -1.000000
vn 0.000000 0.000000 -1.000000
vn -0.143128 0.989704 0.000000
vn -0.143128 0.989704 0.000000
vn -0.143128 0.989704 0.000000
vn -0.143128 0.989704 0.000000
vn 0.000001 0.000000 1.000000
vn 0.000001 0.000000 1.000000
vn 0.000001 0.000000 1.000000
vn 0.000001 0.000000 1.000000
vn 0.000000 0.000000 0.000000
vn 0.000000 0.000000 0.000000
vn 0.000000 0.000000 0.000000
vn 0.000000 0.000000 0.000000
vn 0.000000 0.000000 0.000000
vn 0.000000 0.000000 0.000000
vn 0.000000 0.000000 0.000000
vn 0.000000 0.000000 0.000000
vn 0.000000 0.000000 0.000000
vn 0.000000 0.000000 0.000000
vn 0.000000 0.000000 0.000000
vn 0.000000 0.000000 0.000000
vn 0.000000 0.000000 0.000000
vn 0.000000 0.000000 0.000000
vn 0.000000 0.000000 0.000000
vn 0.000000 0.000000 0.000000
vn -0.111338 -0.993783 0.000000
vn -0.111338 -0.993783 0.000000
vn -0.111338 -0.993783 0.000000
vn -0.111338 -0.993783 0.000000
vn 0.000001 0.000000 1.000000
vn 0.000001 0.000000 1.000000
vn 0.000001 0.000000 1.000000
vn 0.000001 0.000000 1.000000
vn 0.111338 0.993783 -0.000000
vn 0.111338 0.993783 -0.000000
vn 0.111338 0.993783 -0.000000
vn 0.111338 0.993783 -0.000000
vn 0.000001 0.000000 -1.000000
vn 0.000001 0.000000 -1.000000
vn 0.000001 0.000000 -1.000000
vn 0.000001 0.000000 -1.000000
vn 0.000000 0.552131 0.833758
vn 0.000000 0.552131 0.833758
vn 0.640378 0.424070 0.640375
vn 0.640378 0.424070 0.640375
vn 0.640378 0.424070 0.640375
vn 0.640378 0.424070 0.640375
vn -0.000000 -0.552131 -0.833757
vn -0.000000 -0.552131 -0.833757
vn -0.640376 0.424071 0.640377
vn -0.640376 0.424071 0.640377
vn -0.640376 0.424071 0.640377
vn -0.640376 0.424071 0.640377
vn -0.000000 0.477717 -0.878514
vn -0.000000 0.477717 -0.878514
vn -0.659997 0.358893 -0.659999
vn -0.659997 0.358893 -0.659999
vn -0.659997 0.358893 -0.659999
vn -0.659997 0.358893 -0.659999
vn 0.000000 -0.477717 0.878514
vn 0.000000 -0.477717 0.878514
vn 0.659998 0.358893 -0.659998
vn 0.659998 0.358893 -0.659998
vn 0.659998 0.358893 -0.659998
vn 0.659998 0.358893 -0.659998
s off
g pPipe1
usemtl initialShadingGroup
f 60/1/1 54/2/2 18/3/3 84/4/4
f 66/5/5 58/6/6 19/7/7 90/8/8
f 71/9/9 64/10/10 20/11/11 17/12/12
f 61/13/13 65/14/14 91/15/15 82/16/16
f 46/17/17 45/18/18 47/19/19 48/20/20
f 25/21/21 22/22/22 24/23/23 26/24/24
f 50/25/25 49/26/26 51/27/27 52/28/28
f 21/29/29 27/30/30 28/31/31 23/32/32
s 1
f 10/33/33 9/34/34 13/35/35 14/36/36
s 2
f 11/37/37 10/33/38 14/36/39 15/38/40
s 3
f 12/39/41 11/37/42 15/38/43 16/40/44
s 4
f 9/34/45 12/39/46 16/40/47 13/35/48
s off
f 14/36/49 13/35/50 1/41/51 57/42/52
f 15/38/53 14/36/54 2/43/55 63/44/56
f 16/40/57 15/38/58 3/45/59 69/46/60
f 13/35/61 16/40/62 4/47/63 53/48/64
f 80/49/65 76/50/66 8/51/67 5/52/68
s 5
f 85/53/69 78/54/70 5/52/71 6/55/72
s off
f 92/56/73 83/57/74 6/55/75 7/58/76
s 6
f 74/59/77 88/60/78 7/58/79 8/51/80
s off
f 56/61/81 72/62/82 68/63/83 62/64/84
f 70/65/85 75/66/86 89/67/87 67/68/88
f 73/69/89 77/70/90 81/71/91 87/72/92
f 79/73/93 55/74/94 59/75/95 86/76/96
s 5
f 6/55/72 5/52/71 21/29/97 22/22/98
s 1
f 9/34/34 10/33/33 24/23/99 23/32/100
s off
f 34/77/101 33/78/102 35/79/103 36/80/104
s 2
f 10/33/38 11/37/37 26/24/105 24/23/106
s 6
f 8/51/80 7/58/79 25/21/107 27/30/108
s 3
f 11/37/42 12/39/41 28/31/109 26/24/110
s off
f 42/81/111 41/82/112 43/83/113 44/84/114
s 4
f 12/39/46 9/34/45 23/32/115 28/31/116
s off
f 7/58/117 6/55/118 29/85/119 30/86/120
f 6/55/121 22/22/122 31/87/123 29/85/124
f 22/22/125 25/21/126 32/88/127 31/87/128
f 25/21/129 7/58/130 30/86/131 32/88/132
f 30/86/133 29/85/134 33/78/135 34/77/136
f 29/85/137 31/87/138 35/79/139 33/78/140
f 31/87/141 32/88/142 36/80/143 35/79/144
f 32/88/145 30/86/146 34/77/147 36/80/148
f 5/52/149 8/51/150 37/89/151 38/90/152
f 8/51/153 27/30/154 39/91/155 37/89/156
f 27/30/157 21/29/158 40/92/159 39/91/160
f 21/29/161 5/52/162 38/90/163 40/92/164
f 38/90/165 37/89/166 41/82/167 42/81/168
f 37/89/169 39/91/170 43/83/171 41/82/172
f 39/91/173 40/92/174 44/84/175 43/83/176
f 40/92/177 38/90/178 42/81/179 44/84/180
s 5
f 22/22/98 21/29/97 45/18/181 46/17/182
s off
f 21/29/183 23/32/184 47/19/185 45/18/186
s 1
f 23/32/100 24/23/99 48/20/187 47/19/188
s off
f 24/23/189 22/22/190 46/17/191 48/20/192
s 6
f 27/30/108 25/21/107 49/26/193 50/25/194
s off
f 25/21/195 26/24/196 51/27/197 49/26/198
s 3
f 26/24/110 28/31/109 52/28/199 51/27/200
s off
f 28/31/201 27/30/202 50/25/203 52/28/204
