# This file uses centimeters as units for non-parametric coordinates.

mtllib CheckerWall.mtl
g default
v -36.998621 0.000000 16.852057
v 36.998605 0.000000 16.852057
v -36.998605 0.000000 10.443559
v 36.998609 0.000000 10.443559
v -36.998617 0.000000 -10.443560
v 36.998617 0.000000 -10.443560
v -36.998617 0.000000 -16.852057
v 36.998621 0.000000 -16.852057
vt 0.000000 0.000000
vt 1.000000 0.000000
vt 0.000000 0.333333
vt 1.000000 0.333333
vt 0.000000 0.666667
vt 1.000000 0.666667
vt 0.000000 1.000000
vt 1.000000 1.000000
vn 0.000000 1.000000 0.000000
vn 0.000000 1.000000 0.000000
vn 0.000000 1.000000 0.000000
vn 0.000000 1.000000 0.000000
vn 0.000000 1.000000 0.000000
vn 0.000000 1.000000 0.000000
vn 0.000000 1.000000 0.000000
vn 0.000000 1.000000 0.000000
s 1
g pPlane1
usemtl initialShadingGroup
f 1/1/1 2/2/2 4/4/3 3/3/4
f 3/3/4 4/4/3 6/6/5 5/5/6
f 5/5/6 6/6/5 8/8/7 7/7/8
