# This file uses centimeters as units for non-parametric coordinates.

mtllib Cardboard Box Closed.mtl
g default
v 2.687006 -2.000000 -2.687006
v -2.687006 -2.000000 -2.687006
v -2.687005 -2.000000 2.687006
v 2.687006 -2.000000 2.687005
v 2.687006 2.000000 -2.687006
v -2.687006 2.000000 -2.687006
v -2.687005 2.000000 2.687006
v 2.687006 2.000000 2.687005
v 2.687006 -1.855342 2.687005
v 2.687006 -1.855342 -2.687006
v -2.687006 -1.855342 -2.687006
v -2.687005 -1.855342 2.687006
v 2.687006 2.080785 -2.687006
v -2.687006 2.080785 -2.687006
v -2.687005 2.080785 2.687006
v 2.687006 2.080785 2.687005
v -2.687006 2.000000 -2.687006
v -2.687005 2.000000 2.687006
v -2.687006 2.080785 -2.687006
v -2.687005 2.080785 2.687006
v -0.375997 2.334210 -2.687006
v -0.375997 2.334210 2.687005
v -0.375997 2.414996 -2.687006
v -0.375997 2.414996 2.687005
v 2.687006 2.000000 2.687005
v 2.687006 2.000000 -2.687006
v 2.687006 2.080785 2.687005
v 2.687006 2.080785 -2.687006
v 0.045832 2.295904 2.687005
v 0.045832 2.295904 -2.687005
v 0.045832 2.376689 2.687005
v 0.045832 2.376689 -2.687005
v 2.828427 2.000000 -2.743583
v 2.743583 2.000000 -2.828427
v 2.786005 -2.000000 -2.786005
v 2.743583 -2.000000 -2.828427
v 2.828427 -2.000000 -2.743583
v -2.743583 2.000000 -2.828427
v -2.828427 2.000000 -2.743583
v -2.786005 -2.000000 -2.786005
v -2.828427 -2.000000 -2.743583
v -2.743583 -2.000000 -2.828427
v -2.828427 2.000000 2.743583
v -2.743583 2.000000 2.828427
v -2.786005 -2.000000 2.786005
v -2.743583 -2.000000 2.828427
v -2.828427 -2.000000 2.743583
v 2.743583 2.000000 2.828427
v 2.828427 2.000000 2.743582
v 2.786005 -2.000000 2.786004
v 2.828427 -2.000000 2.743582
v 2.743583 -2.000000 2.828427
v 2.726853 2.080785 -2.788039
v 2.743583 2.040397 -2.828427
v -2.727137 2.080785 -2.787846
v -2.743583 2.040397 -2.828427
v 2.787846 2.080785 -2.727137
v 2.828427 2.040397 -2.743583
v 2.765811 2.080785 -2.765811
v 2.786005 2.080785 -2.786005
v -2.788039 2.080785 -2.726853
v -2.828427 2.040397 -2.743583
v -2.787846 2.080785 2.727137
v -2.828427 2.040397 2.743583
v -2.786005 2.080785 -2.786005
v -2.765811 2.080785 -2.765811
v -2.726853 2.080785 2.788039
v -2.743583 2.040397 2.828427
v 2.727138 2.080785 2.787846
v 2.743583 2.040397 2.828427
v -2.786005 2.080785 2.786005
v -2.765810 2.080785 2.765811
v 2.788039 2.080785 2.726853
v 2.828427 2.040397 2.743582
v 2.786005 2.080785 2.786004
v 2.765811 2.080785 2.765811
v 2.687006 -2.000000 -2.687006
v 2.687006 -2.000000 -2.687006
v 2.687006 -2.000000 -2.687006
v 2.687006 -2.000000 -2.687006
v -2.687006 -2.000000 -2.687006
v -2.687006 -2.000000 -2.687006
v -2.687006 -2.000000 -2.687006
v -2.687006 -2.000000 -2.687006
v -2.687006 -2.000000 -2.687006
v -2.687006 -2.000000 -2.687006
v -2.687005 -2.000000 2.687006
v -2.687005 -2.000000 2.687006
v -2.687005 -2.000000 2.687006
v -2.687005 -2.000000 2.687006
v -2.687005 -2.000000 2.687006
v -2.687005 -2.000000 2.687006
v 2.687006 -2.000000 2.687005
v 2.687006 -2.000000 2.687005
v 2.687006 -2.000000 2.687005
v 2.687006 -2.000000 2.687005
v 2.687006 -1.855342 2.687005
v 2.687006 -1.855342 2.687005
v 2.687006 -1.855342 2.687005
v 2.687006 -1.855342 2.687005
v 2.687006 -1.855342 -2.687006
v 2.687006 -1.855342 -2.687006
v 2.687006 -1.855342 -2.687006
v 2.687006 -1.855342 -2.687006
v -2.687006 -1.855342 -2.687006
v -2.687006 -1.855342 -2.687006
v -2.687006 -1.855342 -2.687006
v -2.687006 -1.855342 -2.687006
v -2.687006 -1.855342 -2.687006
v -2.687006 -1.855342 -2.687006
v -2.687005 -1.855342 2.687006
v -2.687005 -1.855342 2.687006
v -2.687005 -1.855342 2.687006
v -2.687005 -1.855342 2.687006
v -2.687005 -1.855342 2.687006
v -2.687005 -1.855342 2.687006
vt 0.625105 0.368199
vt 0.974257 0.172045
vt 0.974456 0.189274
vt 0.624799 0.383555
vt 0.054536 0.244821
vt 0.625105 0.368199
vt 0.624799 0.383555
vt 0.053347 0.261364
vt 0.350419 0.009113
vt 0.054536 0.244821
vt 0.053347 0.261364
vt 0.349557 0.027842
vt 0.625105 0.368199
vt 0.054536 0.244821
vt 0.053347 0.261364
vt 0.624799 0.383555
vt 0.974456 0.189274
vt 0.349557 0.027842
vt 0.325427 0.552081
vt 0.980012 0.669307
vt 0.624799 0.383555
vt 0.974456 0.189274
vt 0.616322 0.808988
vt 0.053347 0.261364
vt 0.624799 0.383555
vt 0.020293 0.721315
vt 0.349557 0.027842
vt 0.053347 0.261364
vt 0.974257 0.172045
vt 0.350419 0.009113
vt 0.054536 0.244821
vt 0.625105 0.368199
vt 0.350419 0.009113
vt 0.349557 0.027842
vt 0.053347 0.261364
vt 0.054536 0.244821
vt 0.349557 0.027842
vt 0.974456 0.189274
vt 0.624799 0.383555
vt 0.053347 0.261364
vt 0.974456 0.189274
vt 0.974257 0.172045
vt 0.625105 0.368199
vt 0.624799 0.383555
vt 0.980134 0.679815
vt 0.616138 0.818250
vt 0.137543 0.698903
vt 0.760226 0.794086
vt 0.760153 0.803914
vt 0.136881 0.709621
vt 0.019571 0.731362
vt 0.324896 0.563611
vt 0.788520 0.778967
vt 0.161502 0.681165
vt 0.160855 0.691990
vt 0.788469 0.788886
vt 0.616322 0.808988
vt 0.020293 0.721315
vt 0.616138 0.818250
vt 0.019571 0.731362
vt 0.325427 0.552081
vt 0.980012 0.669307
vt 0.324896 0.563611
vt 0.980134 0.679815
vt 0.992034 0.170638
vt 0.990747 0.167693
vt 0.352188 0.000000
vt 0.344014 0.000740
vt 0.350419 0.009113
vt 0.974257 0.172045
vt 0.629107 0.373430
vt 0.635634 0.372971
vt 0.993317 0.173572
vt 0.974257 0.172045
vt 0.625105 0.368199
vt 0.038388 0.246099
vt 0.041295 0.248759
vt 0.622584 0.373888
vt 0.625105 0.368199
vt 0.054536 0.244821
vt 0.335847 0.001480
vt 0.035470 0.243429
vt 0.054536 0.244821
vt 0.350419 0.009113
vt 0.999930 0.670401
vt 0.997269 0.666191
vt 0.613739 0.813016
vt 0.627297 0.812367
vt 0.000370 0.720322
vt 0.006575 0.724123
vt 0.327148 0.545492
vt 0.310004 0.546562
vt 0.994336 0.680607
vt 1.000000 0.675648
vt 0.627210 0.816981
vt 0.623991 0.820635
vt 0.994943 0.679021
vt 0.998741 0.678817
vt 0.620335 0.821920
vt 0.619482 0.821174
vt 0.992417 0.677610
vt 0.997338 0.671457
vt 0.326200 0.558965
vt 0.326882 0.551283
vt 0.614231 0.821096
vt 0.613646 0.817628
vt 0.006210 0.729132
vt 0.009800 0.733352
vt 0.002742 0.732265
vt 0.006173 0.732081
vt 0.005356 0.730644
vt 0.000000 0.725349
vt 0.309729 0.552348
vt 0.313886 0.559722
vt 0.318031 0.557609
vt 0.319437 0.558838
vn -0.000000 0.000000 1.000000
vn -0.000000 0.000000 1.000000
vn -0.000000 0.000000 1.000000
vn -0.000000 0.000000 1.000000
vn 1.000000 0.000000 -0.000000
vn 1.000000 0.000000 -0.000000
vn 1.000000 0.000000 -0.000000
vn 1.000000 0.000000 -0.000000
vn 0.000000 0.000000 -1.000000
vn 0.000000 0.000000 -1.000000
vn 0.000000 0.000000 -1.000000
vn 0.000000 0.000000 -1.000000
vn -1.000000 0.000000 0.000000
vn -1.000000 0.000000 0.000000
vn -1.000000 0.000000 0.000000
vn -1.000000 0.000000 0.000000
vn -1.000000 0.000000 0.000000
vn -1.000000 0.000000 0.000000
vn -1.000000 0.000000 0.000000
vn -1.000000 0.000000 0.000000
vn 0.000000 0.000000 1.000000
vn 0.000000 0.000000 1.000000
vn 0.000000 0.000000 1.000000
vn 0.000000 0.000000 1.000000
vn 1.000000 0.000000 -0.000000
vn 1.000000 0.000000 -0.000000
vn 1.000000 0.000000 -0.000000
vn 1.000000 0.000000 -0.000000
vn -0.000000 0.000000 -1.000000
vn -0.000000 0.000000 -1.000000
vn -0.000000 0.000000 -1.000000
vn -0.000000 0.000000 -1.000000
vn -0.000000 -1.000000 -0.000000
vn -0.000000 -1.000000 -0.000000
vn -0.000000 -1.000000 -0.000000
vn -0.000000 -1.000000 -0.000000
vn 0.000000 0.000000 1.000000
vn 0.000000 0.000000 1.000000
vn 0.000000 0.000000 1.000000
vn 0.000000 0.000000 1.000000
vn 0.000000 1.000000 0.000000
vn 0.000000 1.000000 0.000000
vn 0.000000 1.000000 0.000000
vn 0.000000 1.000000 0.000000
vn 0.000000 0.000000 -1.000000
vn 0.000000 0.000000 -1.000000
vn 0.000000 0.000000 -1.000000
vn 0.000000 0.000000 -1.000000
vn -0.000000 0.000000 1.000000
vn -0.000000 0.000000 1.000000
vn 1.000000 0.000000 -0.000000
vn 1.000000 0.000000 -0.000000
vn 1.000000 0.000000 -0.000000
vn 1.000000 0.000000 -0.000000
vn 0.000000 0.000000 -1.000000
vn 0.000000 0.000000 -1.000000
vn -1.000000 0.000000 0.000000
vn -1.000000 0.000000 0.000000
vn -1.000000 0.000000 0.000000
vn -1.000000 0.000000 0.000000
vn 0.000000 0.000000 0.000000
vn 0.000000 0.000000 0.000000
vn 0.000000 0.000000 0.000000
vn 0.000000 0.000000 0.000000
vn 0.000000 0.000000 0.000000
vn 0.000000 0.000000 0.000000
vn 0.000000 0.000000 0.000000
vn 0.000000 0.000000 0.000000
vn 0.000000 0.000000 0.000000
vn 0.000000 0.000000 0.000000
vn 0.000000 0.000000 0.000000
vn 0.000000 0.000000 0.000000
vn 0.000000 0.000000 0.000000
vn 0.000000 0.000000 0.000000
vn 0.000000 0.000000 0.000000
vn 0.000000 0.000000 0.000000
vn 0.143128 -0.989704 -0.000000
vn 0.143128 -0.989704 -0.000000
vn 0.143128 -0.989704 -0.000000
vn 0.143128 -0.989704 -0.000000
vn 0.000000 0.000000 -1.000000
vn 0.000000 0.000000 -1.000000
vn 0.000000 0.000000 -1.000000
vn 0.000000 0.000000 -1.000000
vn -0.143128 0.989704 0.000000
vn -0.143128 0.989704 0.000000
vn -0.143128 0.989704 0.000000
vn -0.143128 0.989704 0.000000
vn 0.000001 0.000000 1.000000
vn 0.000001 0.000000 1.000000
vn 0.000001 0.000000 1.000000
vn 0.000001 0.000000 1.000000
vn 0.000000 0.000000 0.000000
vn 0.000000 0.000000 0.000000
vn 0.000000 0.000000 0.000000
vn 0.000000 0.000000 0.000000
vn 0.000000 0.000000 0.000000
vn 0.000000 0.000000 0.000000
vn 0.000000 0.000000 0.000000
vn 0.000000 0.000000 0.000000
vn 0.000000 0.000000 0.000000
vn 0.000000 0.000000 0.000000
vn 0.000000 0.000000 0.000000
vn 0.000000 0.000000 0.000000
vn 0.000000 0.000000 0.000000
vn 0.000000 0.000000 0.000000
vn 0.000000 0.000000 0.000000
vn 0.000000 0.000000 0.000000
vn -0.111338 -0.993783 0.000000
vn -0.111338 -0.993783 0.000000
vn -0.111338 -0.993783 0.000000
vn -0.111338 -0.993783 0.000000
vn 0.000001 0.000000 1.000000
vn 0.000001 0.000000 1.000000
vn 0.000001 0.000000 1.000000
vn 0.000001 0.000000 1.000000
vn 0.111338 0.993783 -0.000000
vn 0.111338 0.993783 -0.000000
vn 0.111338 0.993783 -0.000000
vn 0.111338 0.993783 -0.000000
vn 0.000001 0.000000 -1.000000
vn 0.000001 0.000000 -1.000000
vn 0.000001 0.000000 -1.000000
vn 0.000001 0.000000 -1.000000
vn 0.000000 -1.000000 0.000000
vn 0.000000 -1.000000 0.000000
vn 0.000000 -1.000000 0.000000
vn 0.000000 -1.000000 0.000000
vn 0.000000 -1.000000 0.000000
vn 0.000000 -1.000000 0.000000
vn 0.000000 -1.000000 0.000000
vn 0.000000 -1.000000 0.000000
vn 0.000000 -1.000000 0.000000
vn 0.000000 -1.000000 0.000000
vn 0.000000 -1.000000 0.000000
vn 0.000000 -1.000000 0.000000
vn 0.000000 -1.000000 0.000000
vn 0.000000 -1.000000 0.000000
vn 0.000000 -1.000000 0.000000
vn 0.000000 -1.000000 0.000000
vn 0.000000 -1.000000 0.000000
vn 0.000000 -1.000000 0.000000
vn 0.000000 -1.000000 0.000000
vn 0.000000 -1.000000 0.000000
vn 0.000000 -1.000000 0.000000
vn 0.000000 -1.000000 0.000000
vn 0.000000 -1.000000 0.000000
vn 0.000000 -1.000000 0.000000
vn 0.707107 0.000000 -0.707107
vn 0.707107 0.000000 -0.707107
vn 0.707107 0.000000 -0.707107
vn 0.707107 0.000000 -0.707107
vn -0.707107 0.000000 -0.707107
vn -0.707107 0.000000 -0.707107
vn -0.707107 0.000000 -0.707107
vn -0.707107 0.000000 -0.707107
vn -0.707107 0.000000 0.707107
vn -0.707107 0.000000 0.707107
vn -0.707107 0.000000 0.707107
vn -0.707107 0.000000 0.707107
vn 0.707107 0.000000 0.707107
vn 0.707107 0.000000 0.707107
vn 0.707107 0.000000 0.707107
vn 0.707107 0.000000 0.707107
vn -0.000000 0.000000 -1.000000
vn -0.000000 0.000000 -1.000000
vn -0.000000 0.000000 -1.000000
vn -0.000000 0.000000 -1.000000
vn -1.000000 0.000000 0.000000
vn -1.000000 0.000000 0.000000
vn -1.000000 0.000000 0.000000
vn -1.000000 0.000000 0.000000
vn 0.000000 0.000000 1.000000
vn 0.000000 0.000000 1.000000
vn 0.000000 0.000000 1.000000
vn 0.000000 0.000000 1.000000
vn 1.000000 0.000000 -0.000000
vn 1.000000 0.000000 -0.000000
vn 1.000000 0.000000 -0.000000
vn 1.000000 0.000000 -0.000000
vn 0.000000 0.000000 0.000000
vn 0.000000 0.000000 0.000000
vn 0.000000 0.000000 0.000000
vn 0.000000 0.000000 0.000000
vn 0.000000 0.000000 0.000000
vn 0.000000 0.000000 0.000000
vn 0.000000 0.000000 0.000000
vn 0.000000 0.000000 0.000000
vn 0.000000 0.000000 0.000000
vn 0.000000 0.000000 0.000000
vn 0.000000 0.000000 0.000000
vn 0.000000 0.000000 0.000000
vn 0.000106 0.708845 -0.705364
vn 0.000082 0.708659 -0.705551
vn -0.000094 0.708651 -0.705559
vn -0.000117 0.708849 -0.705360
vn 0.018795 0.837152 -0.546647
vn 0.018795 0.837152 -0.546647
vn -0.017088 0.837454 -0.546241
vn -0.017088 0.837454 -0.546241
vn 0.705361 0.708848 -0.000122
vn 0.705560 0.708650 -0.000098
vn 0.546241 0.837454 -0.017089
vn 0.546241 0.837454 -0.017089
vn 0.705365 0.708844 0.000102
vn 0.705552 0.708658 0.000077
vn -0.705366 0.708843 -0.000104
vn -0.705553 0.708657 -0.000079
vn -0.705561 0.708649 0.000096
vn -0.705362 0.708847 0.000120
vn -0.546645 0.837153 -0.018798
vn -0.546645 0.837153 -0.018798
vn -0.546241 0.837454 0.017088
vn -0.546241 0.837454 0.017088
vn -0.000106 0.708843 0.705366
vn -0.000082 0.708657 0.705553
vn 0.000094 0.708649 0.705562
vn 0.000118 0.708847 0.705363
vn -0.018797 0.837155 0.546643
vn -0.018797 0.837155 0.546643
vn 0.017093 0.837453 0.546242
vn 0.017093 0.837453 0.546242
vn 0.546644 0.837154 0.018796
vn 0.546644 0.837154 0.018796
vn -0.000000 1.000000 -0.000000
vn -0.000000 1.000000 -0.000000
vn -0.000000 1.000000 -0.000000
vn -0.000000 1.000000 -0.000000
vn -0.000000 1.000000 -0.000000
vn -0.000000 1.000000 -0.000000
vn 0.000000 1.000000 0.000000
vn -0.000000 1.000000 -0.000000
vn -0.000000 1.000000 -0.000000
vn 0.000000 1.000000 0.000000
vn 0.000000 1.000000 0.000000
vn 0.000000 1.000000 0.000000
vn 0.000000 1.000000 0.000000
vn 0.000000 1.000000 0.000000
vn 0.000000 1.000000 0.000000
vn 0.000000 1.000000 0.000000
vn 0.707107 0.000000 -0.707107
vn 0.707107 0.000000 -0.707107
vn -0.707107 0.000000 -0.707107
vn -0.707107 0.000000 -0.707107
vn -0.707107 0.000000 0.707107
vn -0.707107 0.000000 0.707107
vn 0.707107 0.000000 0.707107
vn 0.707107 0.000000 0.707107
vn -0.000002 0.000000 -1.000000
vn -0.000002 0.000000 -1.000000
vn -1.000000 0.000000 -0.000002
vn -1.000000 0.000000 -0.000002
vn 0.000002 0.000000 1.000000
vn 0.000002 0.000000 1.000000
vn 1.000000 0.000000 0.000002
vn 1.000000 0.000000 0.000002
vn 0.707107 0.000000 -0.707107
vn -0.707106 0.000000 -0.707107
vn -0.707107 0.000000 0.707107
vn 0.707106 0.000000 0.707107
s off
g pPipe2
usemtl initialShadingGroup
f 84/1/1 78/2/2 10/3/3 108/4/4
f 90/5/5 82/6/6 11/7/7 114/8/8
f 95/9/9 88/10/10 12/11/11 9/12/12
f 85/13/13 89/14/14 115/15/15 106/16/16
f 104/17/17 100/18/18 8/19/19 5/20/20
s 1
f 109/21/21 102/22/22 5/20/23 6/23/24
s off
f 116/24/25 107/25/26 6/23/27 7/26/28
s 2
f 98/27/29 112/28/30 7/26/31 8/19/32
s off
f 80/29/33 96/30/34 92/31/35 86/32/36
f 94/33/37 99/34/38 113/35/39 91/36/40
f 97/37/41 101/38/42 105/39/43 111/40/44
f 103/41/45 79/42/46 83/43/47 110/44/48
s 1
f 6/23/24 5/20/23 13/45/49 14/46/50
s off
f 22/47/51 21/48/52 23/49/53 24/50/54
s 2
f 8/19/32 7/26/31 15/51/55 16/52/56
s off
f 30/53/57 29/54/58 31/55/59 32/56/60
f 7/26/61 6/23/62 17/57/63 18/58/64
f 6/23/65 14/46/66 19/59/67 17/57/68
f 14/46/69 15/51/70 20/60/71 19/59/72
f 15/51/73 7/26/74 18/58/75 20/60/76
f 18/58/77 17/57/78 21/48/79 22/47/80
f 17/57/81 19/59/82 23/49/83 21/48/84
f 19/59/85 20/60/86 24/50/87 23/49/88
f 20/60/89 18/58/90 22/47/91 24/50/92
f 5/20/93 8/19/94 25/61/95 26/62/96
f 8/19/97 16/52/98 27/63/99 25/61/100
f 16/52/101 13/45/102 28/64/103 27/63/104
f 13/45/105 5/20/106 26/62/107 28/64/108
f 26/62/109 25/61/110 29/54/111 30/53/112
f 25/61/113 27/63/114 31/55/115 29/54/116
f 27/63/117 28/64/118 32/56/119 31/55/120
f 28/64/121 26/62/122 30/53/123 32/56/124
f 35/65/125 37/66/126 51/67/127 50/68/128 4/69/129 77/70/130
f 40/71/131 42/72/132 36/73/133 35/65/134 1/74/135 81/75/136
f 45/76/137 47/77/138 41/78/139 40/71/140 2/79/141 87/80/142
f 50/68/143 52/81/144 46/82/145 45/76/146 3/83/147 93/84/148
s 3
f 34/85/149 33/86/150 37/66/151 36/73/152
s 4
f 39/87/153 38/88/154 42/72/155 41/78/156
s 5
f 44/89/157 43/90/158 47/77/159 46/82/160
s 6
f 49/91/161 48/92/162 52/81/163 51/67/164
s 7
f 38/88/165 34/85/166 36/73/167 42/72/168
s 8
f 43/90/169 39/87/170 41/78/171 47/77/172
s 9
f 48/92/173 44/89/174 46/82/175 52/81/176
s 10
f 33/86/177 49/91/178 51/67/179 37/66/180
s off
f 35/65/181 36/73/182 37/66/183
f 40/71/184 41/78/185 42/72/186
f 45/76/187 46/82/188 47/77/189
f 50/68/190 51/67/191 52/81/192
s 11
f 53/93/193 54/94/194 56/95/195 55/96/196
f 54/94/194 53/93/193 59/97/197 60/98/198
f 55/96/196 56/95/195 65/99/199 66/100/200
s 12
f 57/101/201 58/102/202 60/98/203 59/97/204
f 58/102/202 57/101/201 73/103/205 74/104/206
s 13
f 61/105/207 62/106/208 64/107/209 63/108/210
f 62/106/208 61/105/207 66/100/211 65/99/212
f 63/108/210 64/107/209 71/109/213 72/110/214
s 14
f 67/111/215 68/112/216 70/113/217 69/114/218
f 68/112/216 67/111/215 72/110/219 71/109/220
f 69/114/218 70/113/217 75/115/221 76/116/222
s 12
f 74/104/206 73/103/205 76/116/223 75/115/224
s 15
f 14/46/225 13/45/226 59/97/227 53/93/228 55/96/229 66/100/230
f 15/51/231 14/46/225 66/100/230 61/105/232 63/108/233 72/110/234
f 16/52/235 15/51/231 72/110/234 67/111/236 69/114/237 76/116/238
f 13/45/226 16/52/235 76/116/238 73/103/239 57/101/240 59/97/227
s 3
f 33/86/150 34/85/149 54/94/241 58/102/242
s 4
f 38/88/154 39/87/153 62/106/243 56/95/244
s 5
f 43/90/158 44/89/157 68/112/245 64/107/246
s 6
f 48/92/162 49/91/161 74/104/247 70/113/248
s 7
f 34/85/166 38/88/165 56/95/249 54/94/250
s 8
f 39/87/170 43/90/169 64/107/251 62/106/252
s 9
f 44/89/174 48/92/173 70/113/253 68/112/254
s 10
f 49/91/178 33/86/177 58/102/255 74/104/256
s 3
f 58/102/242 54/94/241 60/98/257
s 4
f 62/106/243 65/99/258 56/95/244
s 5
f 68/112/245 71/109/259 64/107/246
s 6
f 74/104/247 75/115/260 70/113/248
