# This file uses centimeters as units for non-parametric coordinates.

mtllib Flashlight.mtl
g default
v 0.965211 0.557265 8.436661
v 0.557265 0.965211 8.436661
v 0.000000 1.114531 8.436661
v -0.557265 0.965211 8.436661
v -0.965211 0.557265 8.436661
v -1.114531 -0.000000 8.436661
v -0.965211 -0.557265 8.436661
v -0.557265 -0.965211 8.436661
v 0.000000 -1.114531 8.436661
v 0.557265 -0.965211 8.436661
v 0.965211 -0.557265 8.436661
v 1.114531 -0.000000 8.436661
v 1.212514 0.700045 6.101728
v 1.400090 0.000000 6.101728
v 1.212514 -0.700045 6.101728
v 0.700045 -1.212514 6.101728
v 0.000000 -1.400090 6.101728
v -0.700045 -1.212514 6.101728
v -1.212514 -0.700045 6.101728
v -1.400090 0.000000 6.101728
v -1.212514 0.700045 6.101728
v -0.700045 1.212514 6.101728
v 0.000000 1.400090 6.101728
v 0.700045 1.212514 6.101728
v 0.866025 0.500000 3.647613
v 1.000000 0.000000 3.647613
v 0.866025 -0.500000 3.647613
v 0.500000 -0.866025 3.647613
v 0.000000 -1.000000 3.647613
v -0.500000 -0.866025 3.647613
v -0.866025 -0.500000 3.647613
v -1.000000 0.000000 3.647613
v -0.866025 0.500000 3.647613
v -0.500000 0.866025 3.647613
v 0.000000 1.000000 3.647613
v 0.500000 0.866025 3.647613
v 1.212513 0.700045 8.332098
v 1.400090 0.000000 8.332098
v 1.212513 -0.700045 8.332098
v 0.700045 -1.212513 8.332098
v 0.000000 -1.400090 8.332098
v -0.700045 -1.212513 8.332098
v -1.212513 -0.700045 8.332098
v -1.400090 0.000000 8.332098
v -1.212513 0.700045 8.332098
v -0.700045 1.212513 8.332098
v 0.000000 1.400090 8.332098
v 0.700045 1.212513 8.332098
v 0.965211 0.557265 7.942587
v 0.557265 0.965211 7.942587
v -0.000000 0.000000 7.942587
v 0.000000 1.114531 7.942587
v -0.557265 0.965211 7.942587
v -0.965211 0.557265 7.942587
v -1.114531 -0.000000 7.942587
v -0.965211 -0.557265 7.942587
v -0.557265 -0.965211 7.942587
v 0.000000 -1.114531 7.942587
v 0.557265 -0.965211 7.942587
v 0.965211 -0.557265 7.942587
v 1.114531 -0.000000 7.942587
v 0.500018 0.500018 -8.436661
v 0.866025 0.500000 -8.201316
v 0.683038 0.183019 -8.436661
v 0.183019 0.683038 -8.436661
v 0.500000 0.866025 -8.201316
v -0.183019 0.683038 -8.436661
v 0.000000 1.000000 -8.201316
v -0.500018 0.500018 -8.436661
v -0.500000 0.866025 -8.201316
v -0.683038 0.183019 -8.436661
v -0.866025 0.500000 -8.201316
v -0.683038 -0.183019 -8.436661
v -1.000000 0.000000 -8.201316
v -0.500018 -0.500018 -8.436661
v -0.866025 -0.500000 -8.201316
v -0.183019 -0.683038 -8.436661
v -0.500000 -0.866025 -8.201316
v 0.183019 -0.683038 -8.436661
v 0.000000 -1.000000 -8.201316
v 0.500018 -0.500018 -8.436661
v 0.500000 -0.866025 -8.201316
v 0.683038 -0.183019 -8.436661
v 0.866025 -0.500000 -8.201316
v 1.000000 0.000000 -8.201316
v 0.659293 -0.176657 -8.436661
v 0.482636 -0.482636 -8.436661
v 0.176657 -0.659293 -8.436661
v -0.176657 -0.659293 -8.436661
v -0.482636 -0.482636 -8.436661
v -0.659293 -0.176657 -8.436661
v -0.659293 0.176657 -8.436661
v -0.482636 0.482636 -8.436661
v -0.176657 0.659293 -8.436661
v 0.176657 0.659293 -8.436661
v 0.482636 0.482636 -8.436661
v 0.659293 0.176657 -8.436661
v 0.965211 0.557265 8.436661
v 0.965211 0.557265 8.436661
v 0.965211 0.557265 8.436661
v 0.557265 0.965211 8.436661
v 0.557265 0.965211 8.436661
v 0.557265 0.965211 8.436661
v 0.000000 1.114531 8.436661
v 0.000000 1.114531 8.436661
v 0.000000 1.114531 8.436661
v -0.557265 0.965211 8.436661
v -0.557265 0.965211 8.436661
v -0.557265 0.965211 8.436661
v -0.965211 0.557265 8.436661
v -0.965211 0.557265 8.436661
v -0.965211 0.557265 8.436661
v -1.114531 -0.000000 8.436661
v -1.114531 -0.000000 8.436661
v -1.114531 -0.000000 8.436661
v -0.965211 -0.557265 8.436661
v -0.965211 -0.557265 8.436661
v -0.965211 -0.557265 8.436661
v -0.557265 -0.965211 8.436661
v -0.557265 -0.965211 8.436661
v -0.557265 -0.965211 8.436661
v 0.000000 -1.114531 8.436661
v 0.000000 -1.114531 8.436661
v 0.000000 -1.114531 8.436661
v 0.557265 -0.965211 8.436661
v 0.557265 -0.965211 8.436661
v 0.557265 -0.965211 8.436661
v 0.965211 -0.557265 8.436661
v 0.965211 -0.557265 8.436661
v 0.965211 -0.557265 8.436661
v 1.114531 -0.000000 8.436661
v 1.114531 -0.000000 8.436661
v 1.114531 -0.000000 8.436661
v 0.965211 0.557265 8.436661
v 0.557265 0.965211 8.436661
v 0.557265 0.965211 8.436661
v 0.965211 0.557265 8.436661
v 0.557265 0.965211 8.436661
v -0.000000 1.114531 8.436661
v -0.000000 1.114531 8.436661
v 0.557265 0.965211 8.436661
v 0.000000 1.114531 8.436661
v -0.557265 0.965211 8.436661
v -0.557265 0.965211 8.436661
v 0.000000 1.114531 8.436661
v -0.557265 0.965211 8.436661
v -0.965211 0.557265 8.436661
v -0.965211 0.557265 8.436661
v -0.557265 0.965211 8.436661
v -0.965211 0.557265 8.436661
v -1.114531 -0.000000 8.436661
v -1.114531 -0.000000 8.436661
v -0.965211 0.557265 8.436661
v -1.114531 -0.000000 8.436661
v -0.965211 -0.557265 8.436661
v -0.965211 -0.557265 8.436661
v -1.114531 -0.000000 8.436661
v -0.965211 -0.557265 8.436661
v -0.557265 -0.965211 8.436661
v -0.557265 -0.965211 8.436661
v -0.965211 -0.557265 8.436661
v -0.557265 -0.965211 8.436661
v 0.000000 -1.114531 8.436661
v 0.000000 -1.114531 8.436661
v -0.557265 -0.965211 8.436661
v -0.000000 -1.114531 8.436661
v 0.557265 -0.965211 8.436661
v 0.557265 -0.965211 8.436661
v -0.000000 -1.114531 8.436661
v 0.557265 -0.965211 8.436661
v 0.965211 -0.557265 8.436661
v 0.965211 -0.557265 8.436661
v 0.557265 -0.965211 8.436661
v 0.965211 -0.557265 8.436661
v 1.114531 -0.000000 8.436661
v 1.114531 -0.000000 8.436661
v 0.965211 -0.557265 8.436661
v 1.114531 -0.000000 8.436661
v 0.965211 0.557265 8.436661
v 0.965211 0.557265 8.436661
v 1.114531 -0.000000 8.436661
vt 0.616080 0.106879
vt 0.983044 0.028321
vt 0.570898 0.061712
vt 0.812059 0.028321
vt 0.777869 0.028321
vt 0.998243 0.056643
vt 0.846247 0.028327
vt 0.948844 0.028323
vt 0.914645 0.028324
vt 0.834847 0.056646
vt 0.929845 0.056645
vt 0.743693 0.028321
vt 0.880446 0.028326
vt 0.376737 0.144742
vt 0.336492 0.144064
vt 0.338431 0.016934
vt 0.380762 0.017695
vt 0.416893 0.146888
vt 0.423113 0.019442
vt 0.457220 0.150565
vt 0.465319 0.022085
vt 0.000061 0.147455
vt 0.000000 0.017339
vt 0.041301 0.144898
vt 0.041711 0.016991
vt 0.081905 0.144064
vt 0.083838 0.016934
vt 0.122151 0.144740
vt 0.126170 0.017693
vt 0.162307 0.146884
vt 0.168522 0.019438
vt 0.202635 0.150559
vt 0.210728 0.022079
vt 0.254648 0.147449
vt 0.254593 0.017334
vt 0.295888 0.144895
vt 0.296304 0.016989
vt 0.371932 0.288242
vt 0.341588 0.287806
vt 0.402274 0.289399
vt 0.432463 0.291301
vt 0.026974 0.288993
vt 0.056821 0.288072
vt 0.087011 0.287806
vt 0.117355 0.288240
vt 0.147697 0.289395
vt 0.177886 0.291295
vt 0.281550 0.288988
vt 0.311398 0.288070
vt 0.964044 0.028323
vt 0.313262 0.986033
vt 0.339215 0.985634
vt 0.339250 0.986989
vt 0.634582 0.047919
vt 0.324045 0.965231
vt 0.294864 0.967012
vt 0.353127 0.965363
vt 0.289073 0.988770
vt 0.644709 0.065457
vt 0.185495 0.976348
vt 0.160469 0.994013
vt 0.662248 0.075583
vt 0.156555 0.970773
vt 0.136829 0.988745
vt 0.682501 0.075583
vt 0.127601 0.967134
vt 0.111038 0.986513
vt 0.700040 0.065456
vt 0.098589 0.965362
vt 0.084678 0.985634
vt 0.710165 0.047917
vt 0.069508 0.965231
vt 0.058726 0.986035
vt 0.710165 0.027665
vt 0.040327 0.967014
vt 0.034537 0.988773
vt 0.700038 0.010126
vt 0.440032 0.976353
vt 0.415006 0.994017
vt 0.682499 0.000000
vt 0.411093 0.970777
vt 0.391365 0.988748
vt 0.662247 0.000000
vt 0.382139 0.967136
vt 0.365574 0.986515
vt 0.644708 0.010127
vt 0.207753 0.293975
vt 0.252641 0.025239
vt 0.243391 0.155923
vt 0.462330 0.293982
vt 0.507232 0.025247
vt 0.497976 0.155930
vt 0.011094 0.971531
vt 0.016237 0.999048
vt 0.017345 1.000000
vt 0.035164 0.990049
vt 0.414073 0.995205
vt 0.390985 0.990061
vt 0.365435 0.987863
vt 0.634582 0.027666
vt 0.313515 0.987375
vt 0.289701 0.990046
vt 0.271881 0.999997
vt 0.136449 0.990059
vt 0.110899 0.987861
vt 0.084713 0.986989
vt 0.058979 0.987376
vt 0.159537 0.995201
vt 0.265631 0.971527
vt 0.270773 0.999044
vt 0.632610 0.078237
vt 0.964044 0.056643
vt 0.632604 0.045167
vt 0.616065 0.016530
vt 0.587422 0.000000
vt 0.554352 0.000006
vt 0.525716 0.016545
vt 0.509186 0.045188
vt 0.509191 0.078258
vt 0.525731 0.106894
vt 0.554373 0.123424
vt 0.587443 0.123419
vt 0.880450 0.000005
vt 0.743650 0.000000
vt 0.929845 0.028324
vt 0.834847 0.028325
vt 0.914648 0.000003
vt 0.948846 0.000002
vt 0.846252 0.000006
vt 0.998243 0.028322
vt 0.777849 0.000000
vt 0.812048 0.000000
vt 0.983043 0.000000
vt 0.343139 0.000053
vt 0.949973 0.000002
vt 0.334137 0.000000
vt 0.778978 0.000013
vt 0.291972 0.000082
vt 0.300701 0.000004
vt 0.744779 0.000024
vt 0.249529 0.007977
vt 0.258778 0.000322
vt 0.965173 0.028322
vt 0.207319 0.004847
vt 0.216239 0.005507
vt 0.813182 0.000000
vt 0.164770 0.002295
vt 0.173851 0.002805
vt 0.915776 0.000000
vt 0.122100 0.000662
vt 0.131210 0.000941
vt 0.881578 0.000000
vt 0.079544 0.000000
vt 0.088546 0.000052
vt 0.801777 0.028325
vt 0.037378 0.000085
vt 0.046108 0.000006
vt 0.896775 0.028324
vt 0.504120 0.007984
vt 0.004184 0.000326
vt 0.710580 0.000050
vt 0.461911 0.004852
vt 0.470831 0.005513
vt 0.847380 0.000000
vt 0.419363 0.002299
vt 0.428443 0.002810
vt 0.930974 0.028323
vt 0.376693 0.000664
vt 0.385802 0.000943
vt 0.000000 0.000000
vt 0.000000 0.000000
vt 0.000000 0.000000
vt 0.000000 0.000000
vt 0.000000 0.000000
vt 0.000000 0.000000
vt 0.000000 0.000000
vt 0.000000 0.000000
vt 0.000000 0.000000
vt 0.000000 0.000000
vt 0.000000 0.000000
vt 0.000000 0.000000
vt 0.000000 0.000000
vt 0.000000 0.000000
vt 0.000000 0.000000
vt 0.000000 0.000000
vt 0.000000 0.000000
vt 0.000000 0.000000
vt 0.000000 0.000000
vt 0.000000 0.000000
vt 0.000000 0.000000
vt 0.000000 0.000000
vt 0.000000 0.000000
vt 0.000000 0.000000
vt 0.000000 0.000000
vt 0.000000 0.000000
vt 0.000000 0.000000
vt 0.000000 0.000000
vt 0.000000 0.000000
vt 0.000000 0.000000
vt 0.000000 0.000000
vt 0.000000 0.000000
vt 0.000000 0.000000
vt 0.000000 0.000000
vt 0.000000 0.000000
vt 0.000000 0.000000
vt 0.000000 0.000000
vt 0.000000 0.000000
vt 0.000000 0.000000
vt 0.000000 0.000000
vt 0.000000 0.000000
vt 0.000000 0.000000
vt 0.000000 0.000000
vt 0.000000 0.000000
vt 0.000000 0.000000
vt 0.000000 0.000000
vt 0.000000 0.000000
vt 0.000000 0.000000
vt 0.930974 0.056644
vt 0.847376 0.028321
vt 0.710623 0.028371
vt 0.896775 0.056645
vt 0.801777 0.056646
vt 0.881575 0.028321
vt 0.915774 0.028321
vt 0.813177 0.028321
vt 0.965173 0.056643
vt 0.744799 0.028345
vt 0.778989 0.028334
vt 0.949975 0.028322
vn 0.000000 0.000001 1.000000
vn 0.000000 0.000001 1.000000
vn 0.000000 -0.000000 1.000000
vn 0.000000 0.000000 1.000000
vn 0.000000 0.000001 1.000000
vn 0.000000 0.000001 1.000000
vn 0.000000 -0.000000 1.000000
vn 0.000000 -0.000001 1.000000
vn 0.000000 -0.000001 1.000000
vn 0.000000 0.000000 1.000000
vn 0.000000 -0.000001 1.000000
vn 0.000000 -0.000001 1.000000
vn 0.000000 -0.000000 1.000000
vn 0.963194 0.258087 -0.075161
vn 0.963194 0.258087 -0.075161
vn 0.961995 0.257766 0.090119
vn 0.961996 0.257766 0.090119
vn 0.963194 -0.258087 -0.075161
vn 0.963194 -0.258087 -0.075161
vn 0.961996 -0.257766 0.090119
vn 0.961995 -0.257766 0.090119
vn 0.705107 -0.705107 -0.075161
vn 0.705107 -0.705107 -0.075161
vn 0.704230 -0.704230 0.090119
vn 0.704230 -0.704230 0.090119
vn 0.258087 -0.963194 -0.075161
vn 0.258087 -0.963194 -0.075161
vn 0.257766 -0.961995 0.090119
vn 0.257766 -0.961995 0.090119
vn -0.258087 -0.963194 -0.075161
vn -0.258087 -0.963194 -0.075161
vn -0.257766 -0.961995 0.090119
vn -0.257766 -0.961995 0.090119
vn -0.705107 -0.705107 -0.075161
vn -0.705107 -0.705107 -0.075161
vn -0.704230 -0.704230 0.090119
vn -0.704230 -0.704230 0.090119
vn -0.963194 -0.258087 -0.075161
vn -0.963194 -0.258087 -0.075161
vn -0.961995 -0.257766 0.090119
vn -0.961996 -0.257766 0.090119
vn -0.963194 0.258087 -0.075161
vn -0.963194 0.258087 -0.075161
vn -0.961996 0.257766 0.090119
vn -0.961995 0.257766 0.090119
vn -0.705107 0.705107 -0.075161
vn -0.705107 0.705107 -0.075161
vn -0.704230 0.704230 0.090119
vn -0.704230 0.704230 0.090119
vn -0.258087 0.963194 -0.075161
vn -0.258087 0.963194 -0.075161
vn -0.257766 0.961995 0.090119
vn -0.257766 0.961995 0.090119
vn 0.258087 0.963194 -0.075161
vn 0.258087 0.963194 -0.075161
vn 0.257766 0.961995 0.090119
vn 0.257766 0.961995 0.090119
vn 0.705107 0.705107 -0.075161
vn 0.705107 0.705107 -0.075161
vn 0.704230 0.704230 0.090119
vn 0.704230 0.704230 0.090119
vn 0.999451 0.000000 -0.033122
vn 0.865550 0.499726 -0.033122
vn 0.865550 -0.499726 -0.033122
vn 0.499726 -0.865550 -0.033122
vn 0.000000 -0.999451 -0.033122
vn -0.499726 -0.865550 -0.033122
vn -0.865550 -0.499726 -0.033122
vn -0.999451 0.000000 -0.033122
vn -0.865550 0.499726 -0.033122
vn -0.499726 0.865550 -0.033122
vn 0.000000 0.999451 -0.033122
vn 0.499726 0.865550 -0.033122
vn 0.000000 -0.000000 0.000000
vn 0.000000 -0.000000 0.000000
vn 0.000000 -0.000000 0.000000
vn 0.000000 -0.000000 0.000000
vn 0.000000 -0.000000 0.000000
vn 0.000000 -0.000000 0.000000
vn 0.000000 -0.000000 0.000000
vn 0.000000 -0.000000 0.000000
vn 0.000000 -0.000000 0.000000
vn 0.000000 -0.000000 0.000000
vn 0.000000 -0.000000 0.000000
vn 0.000000 -0.000000 0.000000
vn 0.000000 -0.000000 0.000000
vn 0.000000 -0.000000 0.000000
vn 0.000000 -0.000000 0.000000
vn 0.000000 -0.000000 0.000000
vn 0.000000 -0.000000 0.000000
vn 0.000000 -0.000000 0.000000
vn 0.000000 -0.000000 0.000000
vn 0.000000 -0.000000 0.000000
vn 0.000000 0.000000 -0.000000
vn 0.000000 -0.000000 0.000000
vn 0.000000 -0.000000 0.000000
vn 0.000000 0.000000 -0.000000
vn 0.000000 -0.000000 0.000000
vn 0.000000 -0.000000 0.000000
vn 0.000000 -0.000000 0.000000
vn 0.000000 -0.000000 0.000000
vn 0.000000 -0.000000 0.000000
vn 0.000000 -0.000000 0.000000
vn 0.000000 -0.000000 0.000000
vn 0.000000 -0.000000 0.000000
vn 0.000000 -0.000000 0.000000
vn 0.000000 -0.000000 0.000000
vn 0.000000 -0.000000 0.000000
vn 0.000000 -0.000000 0.000000
vn 0.000000 -0.000000 0.000000
vn 0.000000 -0.000000 0.000000
vn 0.000000 -0.000000 0.000000
vn 0.000000 -0.000000 0.000000
vn 0.000000 -0.000000 0.000000
vn 0.000000 -0.000000 0.000000
vn 0.000000 -0.000000 0.000000
vn 0.000000 -0.000000 0.000000
vn 0.000000 -0.000000 0.000000
vn 0.000000 -0.000000 0.000000
vn 0.000000 -0.000000 0.000000
vn 0.000000 -0.000000 0.000000
vn 0.342392 0.091744 0.935067
vn 0.342392 0.091744 0.935067
vn 0.342392 -0.091744 0.935067
vn 0.342392 -0.091744 0.935067
vn 0.250648 -0.250647 0.935068
vn 0.250648 -0.250647 0.935068
vn 0.091744 -0.342392 0.935067
vn 0.091744 -0.342392 0.935067
vn -0.091744 -0.342392 0.935067
vn -0.091744 -0.342392 0.935067
vn -0.250648 -0.250647 0.935068
vn -0.250648 -0.250647 0.935068
vn -0.342392 -0.091744 0.935067
vn -0.342392 -0.091744 0.935067
vn -0.342392 0.091744 0.935067
vn -0.342392 0.091744 0.935067
vn -0.250648 0.250647 0.935068
vn -0.250648 0.250647 0.935068
vn -0.091744 0.342392 0.935067
vn -0.091744 0.342392 0.935067
vn 0.091744 0.342392 0.935067
vn 0.091744 0.342392 0.935067
vn 0.250648 0.250647 0.935068
vn 0.250648 0.250647 0.935068
vn -0.707107 -0.707107 -0.000000
vn -0.707107 -0.707107 -0.000000
vn -0.707107 -0.707107 -0.000000
vn -0.707107 -0.707107 -0.000000
vn -0.258820 -0.965926 -0.000000
vn -0.258820 -0.965926 -0.000000
vn -0.258820 -0.965926 -0.000000
vn -0.258820 -0.965926 -0.000000
vn 0.258820 -0.965926 -0.000000
vn 0.258820 -0.965926 -0.000000
vn 0.258820 -0.965926 -0.000000
vn 0.258820 -0.965926 -0.000000
vn 0.707107 -0.707107 -0.000000
vn 0.707107 -0.707107 -0.000000
vn 0.707107 -0.707107 -0.000000
vn 0.707107 -0.707107 -0.000000
vn 0.965926 -0.258820 -0.000000
vn 0.965926 -0.258820 -0.000000
vn 0.965926 -0.258820 -0.000000
vn 0.965926 -0.258820 -0.000000
vn 0.965926 0.258820 -0.000000
vn 0.965926 0.258820 -0.000000
vn 0.965926 0.258820 -0.000000
vn 0.965926 0.258820 -0.000000
vn 0.707107 0.707107 0.000000
vn 0.707107 0.707107 0.000000
vn 0.707107 0.707107 0.000000
vn 0.707107 0.707107 0.000000
vn 0.258820 0.965926 0.000000
vn 0.258820 0.965926 0.000000
vn 0.258820 0.965926 0.000000
vn 0.258820 0.965926 0.000000
vn -0.258820 0.965926 0.000000
vn -0.258820 0.965926 0.000000
vn -0.258820 0.965926 0.000000
vn -0.258820 0.965926 0.000000
vn -0.707107 0.707107 0.000000
vn -0.707107 0.707107 0.000000
vn -0.707107 0.707107 0.000000
vn -0.707107 0.707107 0.000000
vn -0.965926 0.258820 0.000000
vn -0.965926 0.258820 0.000000
vn -0.965926 0.258820 0.000000
vn -0.965926 0.258820 0.000000
vn -0.965926 -0.258820 0.000000
vn -0.965926 -0.258820 0.000000
vn -0.965926 -0.258820 0.000000
vn -0.965926 -0.258820 0.000000
vn 0.000000 -0.000011 -1.000000
vn 0.000000 0.000000 -1.000000
vn 0.000000 0.000000 -1.000000
vn 0.000000 -0.000000 -1.000000
vn 0.556786 0.321459 -0.765933
vn 0.439257 0.439257 -0.783650
vn 0.321460 0.556786 -0.765933
vn 0.600036 0.160779 -0.783650
vn 0.642920 -0.000000 -0.765933
vn 0.000000 -0.000014 -1.000000
vn 0.000000 -0.000000 -1.000000
vn 0.160779 0.600037 -0.783649
vn 0.000000 0.642922 -0.765932
vn 0.000000 -0.000017 -1.000000
vn 0.000000 -0.000000 -1.000000
vn -0.160779 0.600037 -0.783649
vn -0.321460 0.556786 -0.765933
vn 0.000000 -0.000017 -1.000000
vn 0.000000 -0.000000 -1.000000
vn -0.439257 0.439257 -0.783650
vn -0.556785 0.321460 -0.765933
vn 0.000000 -0.000003 -1.000000
vn 0.000000 -0.000000 -1.000000
vn -0.600036 0.160779 -0.783649
vn -0.642920 -0.000000 -0.765933
vn 0.000000 0.000000 -1.000000
vn 0.000000 0.000000 -1.000000
vn -0.600036 -0.160779 -0.783649
vn -0.556785 -0.321460 -0.765933
vn 0.000000 0.000011 -1.000000
vn 0.000000 0.000000 -1.000000
vn -0.439257 -0.439257 -0.783650
vn -0.321460 -0.556786 -0.765933
vn 0.000000 0.000014 -1.000000
vn 0.000000 0.000000 -1.000000
vn -0.160779 -0.600037 -0.783649
vn 0.000000 -0.642922 -0.765932
vn 0.000000 0.000017 -1.000000
vn 0.000000 0.000000 -1.000000
vn 0.160779 -0.600037 -0.783649
vn 0.321460 -0.556786 -0.765933
vn 0.000000 0.000017 -1.000000
vn 0.000000 0.000000 -1.000000
vn 0.439257 -0.439257 -0.783650
vn 0.556785 -0.321460 -0.765933
vn 0.000000 0.000003 -1.000000
vn 0.000000 0.000000 -1.000000
vn 0.600036 -0.160779 -0.783649
vn 0.866025 0.500000 0.000000
vn 0.500000 0.866025 0.000000
vn 0.000000 1.000000 0.000000
vn -0.500000 0.866025 0.000000
vn -0.866025 0.500000 0.000000
vn -1.000000 -0.000000 0.000000
vn -0.866025 -0.500000 0.000000
vn -0.500000 -0.866025 0.000000
vn 0.000000 -1.000000 0.000000
vn 0.500000 -0.866025 0.000000
vn 0.866025 -0.500000 0.000000
vn 1.000000 -0.000000 0.000000
s 1
g pCylinder1
usemtl initialShadingGroup
f 49/1/1 50/122/2 51/3/3
f 50/122/2 52/121/4 51/3/3
f 52/121/4 53/120/5 51/3/3
f 53/120/5 54/119/6 51/3/3
f 54/119/6 55/118/7 51/3/3
f 55/118/7 56/117/8 51/3/3
f 56/117/8 57/116/9 51/3/3
f 57/116/9 58/115/10 51/3/3
f 58/115/10 59/114/11 51/3/3
f 59/114/11 60/113/12 51/3/3
f 60/113/12 61/111/13 51/3/3
f 61/111/13 49/1/1 51/3/3
s 2
f 14/14/14 13/15/15 37/16/16 38/17/17
f 15/18/18 14/14/19 38/17/20 39/19/21
f 16/20/22 15/18/23 39/19/24 40/21/25
f 17/92/26 16/20/27 40/21/28 41/91/29
f 18/24/30 17/22/31 41/23/32 42/25/33
f 19/26/34 18/24/35 42/25/36 43/27/37
f 20/28/38 19/26/39 43/27/40 44/29/41
f 21/30/42 20/28/43 44/29/44 45/31/45
f 22/32/46 21/30/47 45/31/48 46/33/49
f 23/89/50 22/32/51 46/33/52 47/88/53
f 24/36/54 23/34/55 47/35/56 48/37/57
f 13/15/58 24/36/59 48/37/60 37/16/61
f 26/38/62 25/39/63 13/15/15 14/14/14
f 27/40/64 26/38/62 14/14/19 15/18/18
f 28/41/65 27/40/64 15/18/23 16/20/22
f 29/90/66 28/41/65 16/20/27 17/92/26
f 30/43/67 29/42/66 17/22/31 18/24/30
f 31/44/68 30/43/67 18/24/35 19/26/34
f 32/45/69 31/44/68 19/26/39 20/28/38
f 33/46/70 32/45/69 20/28/43 21/30/42
f 34/47/71 33/46/70 21/30/47 22/32/46
f 35/87/72 34/47/71 22/32/51 23/89/50
f 36/49/73 35/48/72 23/34/55 24/36/54
f 25/39/63 36/49/73 24/36/59 13/15/58
s off
f 134/170/74 135/171/75 136/172/76 137/173/77
f 138/174/78 139/175/79 140/176/80 141/177/81
f 142/178/82 143/179/83 144/180/84 145/181/85
f 146/182/86 147/183/87 148/184/88 149/185/89
f 150/186/90 151/187/91 152/188/92 153/189/93
f 154/190/94 155/191/95 156/192/96 157/193/97
f 158/194/98 159/195/99 160/196/100 161/197/101
f 162/198/102 163/199/103 164/200/104 165/201/105
f 166/202/106 167/203/107 168/204/108 169/205/109
f 170/206/110 171/207/111 172/208/112 173/209/113
f 174/210/114 175/211/115 176/212/116 177/213/117
f 178/214/118 179/215/119 180/216/120 181/217/121
s 2
f 38/17/17 37/16/16 99/134/122 133/168/123
f 39/19/21 38/17/20 132/169/124 130/165/125
f 40/21/25 39/19/24 129/166/126 127/162/127
f 41/91/29 40/21/28 126/163/128 124/159/129
f 42/25/33 41/23/32 123/160/130 121/156/131
f 43/27/37 42/25/36 120/157/132 118/153/133
f 44/29/41 43/27/40 117/154/134 115/150/135
f 45/31/45 44/29/44 114/151/136 112/147/137
f 46/33/49 45/31/48 111/148/138 109/144/139
f 47/88/53 46/33/52 108/145/140 106/141/141
f 48/37/57 47/35/56 105/142/142 103/138/143
f 37/16/61 48/37/60 102/139/144 100/136/145
s off
f 98/135/146 2/133/147 50/2/148 49/229/149
f 101/137/150 3/132/151 52/4/152 50/228/153
f 104/140/154 4/131/155 53/5/156 52/227/157
f 107/143/158 5/130/159 54/6/160 53/226/161
f 110/146/162 6/129/163 55/7/164 54/225/165
f 113/149/166 7/128/167 56/8/168 55/224/169
f 116/152/170 8/127/171 57/9/172 56/223/173
f 119/155/174 9/126/175 58/10/176 57/222/177
f 122/158/178 10/125/179 59/11/180 58/221/181
f 125/161/182 11/124/183 60/12/184 59/220/185
f 128/164/186 12/123/187 61/13/188 60/219/189
f 131/167/190 1/50/191 49/112/192 61/218/193
s 14
f 62/51/194 64/52/195 97/53/196 96/101/197
s 15
f 63/55/198 62/51/199 66/56/200
f 64/52/201 63/55/198 85/57/202
s 14
f 65/58/203 62/51/194 96/101/197 95/102/204
s 15
f 66/56/200 65/58/205 68/109/206
s 14
f 67/110/207 65/58/203 95/102/204 94/103/208
s 15
f 68/60/206 67/61/209 70/63/210
s 14
f 69/64/211 67/61/207 94/108/208 93/104/212
s 15
f 70/63/210 69/64/213 72/66/214
s 14
f 71/67/215 69/64/211 93/104/212 92/105/216
s 15
f 72/66/214 71/67/217 74/69/218
s 14
f 73/70/219 71/67/215 92/105/216 91/106/220
s 15
f 74/69/218 73/70/221 76/72/222
s 14
f 75/73/223 73/70/219 91/106/220 90/107/224
s 15
f 76/72/222 75/73/225 78/75/226
s 14
f 77/76/227 75/73/223 90/107/224 89/96/228
s 15
f 78/75/226 77/76/229 80/93/230
s 14
f 79/94/231 77/76/227 89/96/228 88/95/232
s 15
f 80/78/230 79/79/233 82/81/234
s 14
f 81/82/235 79/79/231 88/97/232 87/98/236
s 15
f 82/81/234 81/82/237 84/84/238
s 14
f 83/85/239 81/82/235 87/98/236 86/99/240
s 15
f 84/84/238 83/85/241 85/57/202
s 14
f 64/52/195 83/85/239 86/99/240 97/53/196
s 2
f 63/55/242 66/56/243 36/49/73 25/39/63
f 66/56/243 68/109/244 35/48/72 36/49/73
f 68/60/244 70/63/245 34/47/71 35/87/72
f 70/63/245 72/66/246 33/46/70 34/47/71
f 72/66/246 74/69/247 32/45/69 33/46/70
f 74/69/247 76/72/248 31/44/68 32/45/69
f 76/72/248 78/75/249 30/43/67 31/44/68
f 78/75/249 80/93/250 29/42/66 30/43/67
f 80/78/250 82/81/251 28/41/65 29/90/66
f 82/81/251 84/84/252 27/40/64 28/41/65
f 84/84/252 85/57/253 26/38/62 27/40/64
f 85/57/253 63/55/242 25/39/63 26/38/62
s 15
f 62/51/199 63/55/198 64/52/201
f 65/58/205 66/56/200 62/51/199
f 67/110/209 68/109/206 65/58/205
f 69/64/213 70/63/210 67/61/209
f 71/67/217 72/66/214 69/64/213
f 73/70/221 74/69/218 71/67/217
f 75/73/225 76/72/222 73/70/221
f 77/76/229 78/75/226 75/73/225
f 79/94/233 80/93/230 77/76/229
f 81/82/237 82/81/234 79/79/233
f 83/85/241 84/84/238 81/82/237
f 64/52/201 85/57/202 83/85/241
s 14
f 86/86/240 87/83/236 88/80/232 89/77/228 90/74/224 91/71/220 92/68/216 93/65/212 94/62/208 95/59/204 96/54/197 97/100/196
