# This file uses centimeters as units for non-parametric coordinates.

mtllib Wall Shelf.mtl
g default
v 19.681477 -9.909692 6.596540
v 20.681477 -9.909692 6.596540
v 19.681477 0.606704 0.274881
v 20.681477 0.606704 0.274881
v 19.681477 0.091500 -0.582186
v 20.681477 0.091500 -0.582186
v 19.681477 -10.424896 5.739473
v 20.681477 -10.424896 5.739473
v 19.681477 -11.616779 6.693001
v 20.681477 -11.616779 6.693001
v 19.681477 0.653426 6.693001
v 20.681477 0.653426 6.693001
v 19.681477 0.653426 5.693001
v 20.681477 0.653426 5.693001
v 19.681477 -11.616779 5.693001
v 20.681477 -11.616779 5.693001
v 19.681477 -0.863125 -6.762620
v 20.681477 -0.863125 -6.762620
v 19.681477 -0.863125 6.693001
v 20.681477 -0.863125 6.693001
v 19.681477 0.740933 6.693001
v 20.681477 0.740933 6.693001
v 19.681477 0.740933 -6.762620
v 20.681477 0.740933 -6.762620
vt 0.280052 0.920915
vt 0.280050 0.943738
vt 0.000001 0.943719
vt 0.000003 0.920896
vt 0.925130 0.127907
vt 0.925131 0.105084
vt 0.947954 0.105084
vt 0.947954 0.127908
vt 0.000005 0.898072
vt 0.000006 0.875249
vt 0.280055 0.875268
vt 0.280054 0.898091
vt 0.927164 0.059436
vt 0.927167 0.082259
vt 0.904344 0.082263
vt 0.904341 0.059439
vt 0.280049 0.966562
vt 0.000000 0.966542
vt 0.893345 0.823953
vt 0.893348 0.846776
vt 0.613299 0.846808
vt 0.613296 0.823985
vt 0.977107 0.091297
vt 0.977104 0.068473
vt 0.999927 0.068470
vt 0.999930 0.091294
vt 0.613294 0.801162
vt 0.613291 0.778338
vt 0.893340 0.778306
vt 0.893343 0.801129
vt 0.973942 0.082264
vt 0.973940 0.105088
vt 0.951117 0.105087
vt 0.951118 0.082263
vt 0.893337 0.755482
vt 0.613288 0.755515
vt 0.611116 0.815379
vt 0.611113 0.838401
vt 0.306649 0.838364
vt 0.306651 0.815343
vt 0.992925 0.000001
vt 0.992924 0.022824
vt 0.956314 0.022824
vt 0.956315 0.000000
vt 0.306656 0.778415
vt 0.306659 0.755394
vt 0.611123 0.755430
vt 0.611120 0.778451
vt 0.927165 0.036610
vt 0.904342 0.036611
vt 0.904341 0.000001
vt 0.927164 0.000000
vt 0.611108 0.875328
vt 0.306644 0.875292
vn 0.000000 0.515204 0.857068
vn 0.000000 0.515204 0.857068
vn 0.000000 0.515204 0.857068
vn 0.000000 0.515204 0.857068
vn 0.000000 0.857068 -0.515203
vn 0.000000 0.857068 -0.515203
vn 0.000000 0.857068 -0.515203
vn 0.000000 0.857068 -0.515203
vn 0.000000 -0.515204 -0.857068
vn 0.000000 -0.515204 -0.857068
vn 0.000000 -0.515204 -0.857068
vn 0.000000 -0.515204 -0.857068
vn 0.000000 -0.857068 0.515204
vn 0.000000 -0.857068 0.515204
vn 0.000000 -0.857068 0.515204
vn 0.000000 -0.857068 0.515204
vn 1.000000 0.000000 0.000000
vn 1.000000 0.000000 0.000000
vn 1.000000 0.000000 0.000000
vn 1.000000 0.000000 0.000000
vn -1.000000 0.000000 0.000000
vn -1.000000 0.000000 0.000000
vn -1.000000 0.000000 0.000000
vn -1.000000 0.000000 0.000000
vn 0.000000 0.000000 1.000000
vn 0.000000 0.000000 1.000000
vn 0.000000 0.000000 1.000000
vn 0.000000 0.000000 1.000000
vn 0.000000 1.000000 0.000000
vn 0.000000 1.000000 0.000000
vn 0.000000 1.000000 0.000000
vn 0.000000 1.000000 0.000000
vn 0.000000 0.000000 -1.000000
vn 0.000000 0.000000 -1.000000
vn 0.000000 0.000000 -1.000000
vn 0.000000 0.000000 -1.000000
vn 0.000000 -1.000000 0.000000
vn 0.000000 -1.000000 0.000000
vn 0.000000 -1.000000 0.000000
vn 0.000000 -1.000000 0.000000
vn 1.000000 0.000000 0.000000
vn 1.000000 0.000000 0.000000
vn 1.000000 0.000000 0.000000
vn 1.000000 0.000000 0.000000
vn -1.000000 0.000000 0.000000
vn -1.000000 0.000000 0.000000
vn -1.000000 0.000000 0.000000
vn -1.000000 0.000000 0.000000
vn 0.000000 -1.000000 0.000000
vn 0.000000 -1.000000 0.000000
vn 0.000000 -1.000000 0.000000
vn 0.000000 -1.000000 0.000000
vn 0.000000 0.000000 1.000000
vn 0.000000 0.000000 1.000000
vn 0.000000 0.000000 1.000000
vn 0.000000 0.000000 1.000000
vn 0.000000 1.000000 0.000000
vn 0.000000 1.000000 0.000000
vn 0.000000 1.000000 0.000000
vn 0.000000 1.000000 0.000000
vn 0.000000 0.000000 -1.000000
vn 0.000000 0.000000 -1.000000
vn 0.000000 0.000000 -1.000000
vn 0.000000 0.000000 -1.000000
vn 1.000000 0.000000 0.000000
vn 1.000000 0.000000 0.000000
vn 1.000000 0.000000 0.000000
vn 1.000000 0.000000 0.000000
vn -1.000000 0.000000 0.000000
vn -1.000000 0.000000 0.000000
vn -1.000000 0.000000 0.000000
vn -1.000000 0.000000 0.000000
s off
g polySurface3
usemtl initialShadingGroup
f 1/1/1 2/2/2 4/3/3 3/4/4
f 3/5/5 4/6/6 6/7/7 5/8/8
f 5/9/9 6/10/10 8/11/11 7/12/12
f 7/13/13 8/14/14 2/15/15 1/16/16
f 2/2/17 8/17/18 6/18/19 4/3/20
f 7/12/21 1/1/22 3/4/23 5/9/24
f 9/19/25 10/20/26 12/21/27 11/22/28
f 11/23/29 12/24/30 14/25/31 13/26/32
f 13/27/33 14/28/34 16/29/35 15/30/36
f 15/31/37 16/32/38 10/33/39 9/34/40
f 10/35/41 16/29/42 14/28/43 12/36/44
f 15/30/45 9/19/46 11/22/47 13/27/48
f 17/37/49 18/38/50 20/39/51 19/40/52
f 19/41/53 20/42/54 22/43/55 21/44/56
f 21/45/57 22/46/58 24/47/59 23/48/60
f 23/49/61 24/50/62 18/51/63 17/52/64
f 18/38/65 24/53/66 22/54/67 20/39/68
f 23/48/69 17/37/70 19/40/71 21/45/72
g default
v -19.748676 1.016438 6.708575
v -19.748676 -0.495944 6.708575
v 20.681477 1.016438 6.708575
v 20.681477 -0.495944 6.708575
v 20.681477 1.016438 5.708575
v 20.681477 -0.495944 5.708575
v -19.748676 1.016438 5.708575
v -19.748676 -0.495944 5.708575
v -19.734140 -0.618035 6.135510
v -19.734140 -0.473235 6.485089
v -19.734140 -0.123656 6.629889
v 19.734140 -0.618035 6.135510
v 19.734140 -0.123656 6.629889
v 19.734140 -0.473235 6.485089
v -19.734140 0.618035 6.135510
v -19.734140 0.123656 6.629889
v -19.734140 0.473235 6.485089
v 19.734140 0.618035 6.135510
v 19.734140 0.473235 6.485089
v 19.734140 0.123656 6.629889
v -19.734140 0.123656 -6.629889
v -19.734140 0.618035 -6.135510
v -19.734140 0.473235 -6.485089
v 19.734140 0.123656 -6.629889
v 19.734140 0.473235 -6.485089
v 19.734140 0.618035 -6.135510
v -19.734140 -0.618035 -6.135510
v -19.734140 -0.123656 -6.629889
v -19.734140 -0.473235 -6.485089
v 19.734140 -0.618035 -6.135510
v 19.734140 -0.473235 -6.485089
v 19.734140 -0.123656 -6.629889
vt 0.000022 0.640632
vt 0.919936 0.036610
vt 0.922764 0.720970
vt 0.956314 0.045649
vt 0.922768 0.698146
vt 0.922774 0.663629
vt 0.000011 0.697973
vt 0.954450 0.059439
vt 0.990832 0.045648
vt 0.990833 0.068471
vt 0.922757 0.755488
vt 0.956315 0.068473
vt 0.922779 0.640805
vt 0.000000 0.755314
vt 0.000006 0.720796
vt 0.919933 0.059434
vt 0.000017 0.663455
vt 0.954454 0.036616
vt 0.000000 0.000120
vt 0.900804 0.000000
vt 0.900805 0.005645
vt 0.000001 0.005764
vt 0.000003 0.023036
vt 0.900807 0.022917
vt 0.900844 0.302984
vt 0.000040 0.303104
vt 0.000043 0.320376
vt 0.900846 0.320256
vt 0.900847 0.325901
vt 0.000043 0.326020
vt 0.000046 0.343292
vt 0.900849 0.343172
vt 0.900887 0.623240
vt 0.000083 0.623360
vt 0.000085 0.640632
vt 0.000084 0.631996
vt 0.900888 0.631876
vt 0.900889 0.640512
vt 0.000002 0.014400
vt 0.900806 0.014281
vt 0.000041 0.311740
vt 0.900845 0.311620
vt 0.000044 0.334656
vt 0.900848 0.334536
vt 0.262620 0.966561
vt 0.013367 0.966623
vt 0.006195 0.970087
vt 0.001492 0.978444
vt 0.000000 0.984372
vt 0.000488 0.992802
vt 0.005919 0.996382
vt 0.255497 1.000000
vt 0.264351 0.996168
vt 0.269701 0.986683
vt 0.271122 0.979959
vt 0.269794 0.970473
vt 0.949653 0.960158
vt 0.937119 0.970554
vt 0.925704 0.974724
vt 0.698526 0.969760
vt 0.696446 0.965925
vt 0.702555 0.956949
vt 0.708489 0.950647
vt 0.719182 0.941768
vt 0.728302 0.938090
vt 0.958683 0.938097
vt 0.962447 0.942383
vt 0.956280 0.952784
vn 0.000000 0.000000 1.000000
vn 0.000000 0.000000 1.000000
vn 0.000000 0.000000 1.000000
vn 0.000000 0.000000 1.000000
vn 1.000000 0.000000 0.000000
vn 1.000000 0.000000 0.000000
vn 1.000000 0.000000 0.000000
vn 1.000000 0.000000 0.000000
vn 0.000000 0.000000 -1.000000
vn 0.000000 0.000000 -1.000000
vn 0.000000 0.000000 -1.000000
vn 0.000000 0.000000 -1.000000
vn -1.000000 0.000000 0.000000
vn -1.000000 0.000000 0.000000
vn -1.000000 0.000000 0.000000
vn -1.000000 0.000000 0.000000
vn 0.000000 -1.000000 0.000000
vn 0.000000 -1.000000 0.000000
vn 0.000000 -1.000000 0.000000
vn 0.000000 -1.000000 0.000000
vn 0.000000 1.000000 0.000000
vn 0.000000 1.000000 0.000000
vn 0.000000 1.000000 0.000000
vn 0.000000 1.000000 0.000000
vn 0.000000 -0.235753 0.971813
vn 0.000000 -0.235753 0.971813
vn 0.000000 0.235753 0.971813
vn 0.000000 0.235753 0.971813
vn 0.000000 0.999934 0.011473
vn 0.000000 0.999934 0.011473
vn 0.000000 0.999934 -0.011473
vn 0.000000 0.999934 -0.011473
vn 0.000000 0.235753 -0.971813
vn 0.000000 0.235753 -0.971813
vn 0.000000 -0.235753 -0.971813
vn 0.000000 -0.235753 -0.971813
vn 0.000000 -0.999934 -0.011473
vn 0.000000 -0.999934 -0.011473
vn 0.000000 -0.999934 0.011473
vn 0.000000 -0.999934 0.011473
vn 0.000000 -0.382684 0.923880
vn 0.000000 -0.382684 0.923880
vn 0.000000 -0.923880 0.382684
vn 0.000000 -0.923880 0.382684
vn 0.000000 0.923880 0.382684
vn 0.000000 0.923880 0.382684
vn 0.000000 0.382684 0.923880
vn 0.000000 0.382684 0.923880
vn 0.000000 0.382684 -0.923880
vn 0.000000 0.382684 -0.923880
vn 0.000000 0.923880 -0.382684
vn 0.000000 0.923880 -0.382684
vn 0.000000 -0.923880 -0.382684
vn 0.000000 -0.923880 -0.382684
vn 0.000000 -0.382684 -0.923880
vn 0.000000 -0.382684 -0.923880
vn -1.000000 0.000000 0.000000
vn -1.000000 0.000000 0.000000
vn -1.000000 0.000000 0.000000
vn -1.000000 0.000000 0.000000
vn -1.000000 0.000000 0.000000
vn -1.000000 0.000000 0.000000
vn -1.000000 0.000000 0.000000
vn -1.000000 0.000000 0.000000
vn -1.000000 0.000000 0.000000
vn -1.000000 0.000000 0.000000
vn -1.000000 0.000000 0.000000
vn -1.000000 0.000000 0.000000
vn 1.000000 0.000001 0.000000
vn 1.000000 0.000001 0.000000
vn 1.000000 0.000001 0.000000
vn 1.000000 0.000001 0.000000
vn 1.000000 0.000001 0.000000
vn 1.000000 0.000001 0.000000
vn 1.000000 0.000001 0.000000
vn 1.000000 0.000001 0.000000
vn 1.000000 0.000001 0.000000
vn 1.000000 0.000001 0.000000
vn 1.000000 0.000001 0.000000
vn 1.000000 0.000001 0.000000
s off
g pCube6
usemtl initialShadingGroup
f 25/68/73 26/69/74 28/57/75 27/65/76
f 27/58/77 28/63/78 30/64/79 29/66/80
f 29/60/81 30/59/82 32/61/83 31/71/84
f 31/62/85 32/70/86 26/56/87 25/72/88
f 26/69/89 32/61/90 30/59/91 28/57/92
f 31/71/93 25/55/94 27/67/95 29/60/96
s 1
f 35/73/97 37/74/98 44/75/99 40/76/100
s 2
f 39/77/101 42/78/102 50/79/103 46/80/104
s 3
f 45/81/105 48/82/106 56/83/107 52/84/108
s 4
f 51/85/109 54/86/110 36/87/111 33/88/112
s 1
f 35/89/97 34/90/113 38/91/114 37/92/98
s 4
f 34/90/115 33/88/112 36/87/111 38/91/116
s 2
f 39/77/101 41/93/117 43/94/118 42/78/102
s 1
f 41/93/119 40/76/100 44/75/99 43/94/120
s 3
f 45/81/105 47/95/121 49/96/122 48/82/106
s 2
f 47/95/123 46/80/104 50/79/103 49/96/124
s 4
f 51/85/109 53/97/125 55/98/126 54/86/110
s 3
f 53/97/127 52/84/108 56/83/107 55/98/128
s off
f 51/99/129 33/100/130 34/101/131 35/102/132 40/103/133 41/104/134 39/105/135 46/106/136 47/107/137 45/108/138 52/109/139 53/110/140
f 48/111/141 49/112/142 50/113/143 42/114/144 43/115/145 44/116/146 37/117/147 38/118/148 36/119/149 54/120/150 55/121/151 56/122/152
g default
v -19.681477 -9.909692 6.596540
v -20.681477 -9.909692 6.596540
v -19.681477 0.606704 0.274881
v -20.681477 0.606704 0.274881
v -19.681477 0.091500 -0.582186
v -20.681477 0.091500 -0.582186
v -19.681477 -10.424896 5.739473
v -20.681477 -10.424896 5.739473
v -19.681477 -11.616779 6.693001
v -20.681477 -11.616779 6.693001
v -19.681477 0.653426 6.693001
v -20.681477 0.653426 6.693001
v -19.681477 0.653426 5.693001
v -20.681477 0.653426 5.693001
v -19.681477 -11.616779 5.693001
v -20.681477 -11.616779 5.693001
v -19.681477 -0.863125 -6.762620
v -20.681477 -0.863125 -6.762620
v -19.681477 -0.863125 6.693001
v -20.681477 -0.863125 6.693001
v -19.681477 0.740933 6.693001
v -20.681477 0.740933 6.693001
v -19.681477 0.740933 -6.762620
v -20.681477 0.740933 -6.762620
vt 0.560709 0.920969
vt 0.280661 0.920950
vt 0.280659 0.943774
vt 0.560708 0.943793
vt 0.951117 0.127911
vt 0.973940 0.127911
vt 0.973941 0.105088
vt 0.951117 0.105087
vt 0.280662 0.898127
vt 0.560711 0.898146
vt 0.560713 0.875322
vt 0.280664 0.875303
vt 0.953151 0.059439
vt 0.930327 0.059443
vt 0.930331 0.082266
vt 0.953154 0.082263
vt 0.280657 0.966597
vt 0.560706 0.966616
vt 0.919332 0.915245
vt 0.639283 0.915277
vt 0.639286 0.938100
vt 0.919335 0.938068
vt 0.904344 0.105087
vt 0.927167 0.105083
vt 0.927164 0.082260
vt 0.904341 0.082263
vt 0.639280 0.892453
vt 0.919329 0.892421
vt 0.919327 0.869598
vt 0.639278 0.869630
vt 0.999928 0.091298
vt 0.977105 0.091297
vt 0.977104 0.114120
vt 0.999927 0.114122
vt 0.919324 0.846774
vt 0.639275 0.846806
vt 0.304471 0.815321
vt 0.000007 0.815285
vt 0.000004 0.838307
vt 0.304469 0.838343
vt 0.992925 0.022824
vt 0.956315 0.022824
vt 0.956314 0.045647
vt 0.992924 0.045648
vt 0.000012 0.778358
vt 0.304476 0.778394
vt 0.304479 0.755372
vt 0.000014 0.755336
vt 0.953152 0.036610
vt 0.953151 0.000000
vt 0.930327 0.000001
vt 0.930328 0.036611
vt 0.000000 0.875234
vt 0.304464 0.875270
vn 0.000000 0.515204 0.857068
vn 0.000000 0.515204 0.857068
vn 0.000000 0.515204 0.857068
vn 0.000000 0.515204 0.857068
vn 0.000000 0.857068 -0.515203
vn 0.000000 0.857068 -0.515203
vn 0.000000 0.857068 -0.515203
vn 0.000000 0.857068 -0.515203
vn 0.000000 -0.515204 -0.857068
vn 0.000000 -0.515204 -0.857068
vn 0.000000 -0.515204 -0.857068
vn 0.000000 -0.515204 -0.857068
vn 0.000000 -0.857068 0.515204
vn 0.000000 -0.857068 0.515204
vn 0.000000 -0.857068 0.515204
vn 0.000000 -0.857068 0.515204
vn -1.000000 0.000000 0.000000
vn -1.000000 0.000000 0.000000
vn -1.000000 0.000000 0.000000
vn -1.000000 0.000000 0.000000
vn 1.000000 0.000000 0.000000
vn 1.000000 0.000000 0.000000
vn 1.000000 0.000000 0.000000
vn 1.000000 0.000000 0.000000
vn 0.000000 0.000000 1.000000
vn 0.000000 0.000000 1.000000
vn 0.000000 0.000000 1.000000
vn 0.000000 0.000000 1.000000
vn 0.000000 1.000000 0.000000
vn 0.000000 1.000000 0.000000
vn 0.000000 1.000000 0.000000
vn 0.000000 1.000000 0.000000
vn 0.000000 0.000000 -1.000000
vn 0.000000 0.000000 -1.000000
vn 0.000000 0.000000 -1.000000
vn 0.000000 0.000000 -1.000000
vn 0.000000 -1.000000 0.000000
vn 0.000000 -1.000000 0.000000
vn 0.000000 -1.000000 0.000000
vn 0.000000 -1.000000 0.000000
vn -1.000000 0.000000 0.000000
vn -1.000000 0.000000 0.000000
vn -1.000000 0.000000 0.000000
vn -1.000000 0.000000 0.000000
vn 1.000000 0.000000 0.000000
vn 1.000000 0.000000 0.000000
vn 1.000000 0.000000 0.000000
vn 1.000000 0.000000 0.000000
vn 0.000000 -1.000000 0.000000
vn 0.000000 -1.000000 0.000000
vn 0.000000 -1.000000 0.000000
vn 0.000000 -1.000000 0.000000
vn 0.000000 0.000000 1.000000
vn 0.000000 0.000000 1.000000
vn 0.000000 0.000000 1.000000
vn 0.000000 0.000000 1.000000
vn 0.000000 1.000000 0.000000
vn 0.000000 1.000000 0.000000
vn 0.000000 1.000000 0.000000
vn 0.000000 1.000000 0.000000
vn 0.000000 0.000000 -1.000000
vn 0.000000 0.000000 -1.000000
vn 0.000000 0.000000 -1.000000
vn 0.000000 0.000000 -1.000000
vn -1.000000 0.000000 0.000000
vn -1.000000 0.000000 0.000000
vn -1.000000 0.000000 0.000000
vn -1.000000 0.000000 0.000000
vn 1.000000 0.000000 0.000000
vn 1.000000 0.000000 0.000000
vn 1.000000 0.000000 0.000000
vn 1.000000 0.000000 0.000000
s off
g polySurface4
usemtl initialShadingGroup
f 57/123/153 59/124/154 60/125/155 58/126/156
f 59/127/157 61/128/158 62/129/159 60/130/160
f 61/131/161 63/132/162 64/133/163 62/134/164
f 63/135/165 57/136/166 58/137/167 64/138/168
f 58/126/169 60/125/170 62/139/171 64/140/172
f 63/132/173 61/131/174 59/124/175 57/123/176
f 65/141/177 67/142/178 68/143/179 66/144/180
f 67/145/181 69/146/182 70/147/183 68/148/184
f 69/149/185 71/150/186 72/151/187 70/152/188
f 71/153/189 65/154/190 66/155/191 72/156/192
f 66/157/193 68/158/194 70/152/195 72/151/196
f 71/150/197 69/149/198 67/142/199 65/141/200
f 73/159/201 75/160/202 76/161/203 74/162/204
f 75/163/205 77/164/206 78/165/207 76/166/208
f 77/167/209 79/168/210 80/169/211 78/170/212
f 79/171/213 73/172/214 74/173/215 80/174/216
f 74/162/217 76/161/218 78/175/219 80/176/220
f 79/168/221 77/167/222 75/160/223 73/159/224
