# This file uses centimeters as units for non-parametric coordinates.

mtllib Office Window.mtl
g default
v -25.078911 5.898739 -5.458291
v 25.078911 5.898739 -5.458291
v 25.078911 5.898739 5.458291
v -25.078911 5.898739 5.458291
v 21.785635 9.664948 -5.458291
v -21.785635 9.664948 -5.458291
v -21.785635 9.664948 5.458291
v 21.785635 9.664948 5.458291
v -25.078911 80.977158 5.458291
v -25.078911 80.977158 -5.458291
v -21.749174 77.442963 -5.458291
v -21.749174 77.442963 5.458291
v 21.749174 77.442963 5.458291
v 21.749174 77.442963 -5.458291
v 25.078911 80.977158 -5.458291
v 25.078911 80.977158 5.458291
vt 0.129076 0.132935
vt 0.625411 0.062917
vt 0.597884 0.000000
vt 0.080976 0.078586
vt 0.589912 0.103745
vt 0.156254 0.162369
vt 0.108837 0.108732
vt 0.560565 0.042826
vt 0.000000 0.868691
vt 0.058968 0.890934
vt 0.096838 0.850016
vt 0.039908 0.825616
vt 0.550572 0.816309
vt 0.584528 0.843346
vt 0.625386 0.887306
vt 0.593324 0.862449
vn 0.000000 -1.000000 0.000000
vn 0.000000 -1.000000 0.000000
vn 0.000000 -1.000000 0.000000
vn 0.000000 -1.000000 0.000000
vn 0.000000 1.000000 0.000000
vn 0.000000 1.000000 0.000000
vn 0.000000 1.000000 0.000000
vn 0.000000 1.000000 0.000000
vn -1.000000 0.000000 0.000000
vn -1.000000 0.000000 0.000000
vn -1.000000 0.000000 0.000000
vn -1.000000 0.000000 0.000000
vn 1.000000 -0.000538 0.000000
vn 1.000000 -0.000538 0.000000
vn 1.000000 -0.000538 0.000000
vn 1.000000 -0.000538 0.000000
vn -1.000000 -0.000538 0.000000
vn -1.000000 -0.000538 0.000000
vn -1.000000 -0.000538 0.000000
vn -1.000000 -0.000538 0.000000
vn 1.000000 0.000000 0.000000
vn 1.000000 0.000000 0.000000
vn 1.000000 0.000000 0.000000
vn 1.000000 0.000000 0.000000
vn 0.000000 -1.000000 0.000000
vn 0.000000 -1.000000 0.000000
vn 0.000000 -1.000000 0.000000
vn 0.000000 -1.000000 0.000000
vn 0.000000 0.000000 -1.000000
vn 0.000000 0.000000 -1.000000
vn 0.000000 0.000000 -1.000000
vn 0.000000 0.000000 -1.000000
vn 0.000000 1.000000 0.000000
vn 0.000000 1.000000 0.000000
vn 0.000000 1.000000 0.000000
vn 0.000000 1.000000 0.000000
vn 0.000000 0.000000 -1.000000
vn 0.000000 0.000000 -1.000000
vn 0.000000 0.000000 -1.000000
vn 0.000000 0.000000 -1.000000
vn 0.000000 0.000000 1.000000
vn 0.000000 0.000000 1.000000
vn 0.000000 0.000000 1.000000
vn 0.000000 0.000000 1.000000
vn 0.000000 0.000000 1.000000
vn 0.000000 0.000000 1.000000
vn 0.000000 0.000000 1.000000
vn 0.000000 0.000000 1.000000
vn 0.000000 0.000000 1.000000
vn 0.000000 0.000000 1.000000
vn 0.000000 0.000000 -1.000000
vn 0.000000 0.000000 -1.000000
vn 0.000000 0.000000 -1.000000
vn 0.000000 0.000000 -1.000000
vn 0.000000 0.000000 1.000000
vn 0.000000 0.000000 1.000000
s off
g polySurface1
usemtl initialShadingGroup
f 1/1/1 2/2/2 3/3/3 4/4/4
f 5/5/5 6/6/6 7/7/7 8/8/8
f 1/1/9 4/4/10 9/9/11 10/10/12
f 6/6/13 11/11/14 12/12/15 7/7/16
f 8/8/17 13/13/18 14/14/19 5/5/20
f 3/3/21 2/2/22 15/15/23 16/16/24
f 13/13/25 12/12/26 11/11/27 14/14/28
s 1
f 15/15/29 2/2/30 5/5/31 14/14/32
s off
f 9/9/33 16/16/34 15/15/35 10/10/36
s 2
f 10/10/37 11/11/38 6/6/39 1/1/40
s 3
f 3/3/41 8/8/42 7/7/43 4/4/44
s 4
f 9/9/45 12/12/46 13/13/47 16/16/48
s 3
f 4/4/44 7/7/43 12/12/49 9/9/50
s 1
f 10/10/51 15/15/29 14/14/32 11/11/52
s 2
f 5/5/53 2/2/54 1/1/40 6/6/39
s 4
f 13/13/47 8/8/55 3/3/56 16/16/48
g default
v -22.025141 8.356166 0.500000
v 22.025141 8.356166 0.500000
v -22.025141 78.143291 0.500000
v 22.025141 78.143291 0.500000
v -22.025141 78.143291 -0.500000
v 22.025141 78.143291 -0.500000
v -22.025141 8.356166 -0.500000
v 22.025141 8.356166 -0.500000
vt 0.671132 0.049672
vt 0.997921 0.000000
vt 0.997719 0.570538
vt 0.626829 0.579230
vt 1.000000 0.572298
vt 0.630671 0.580803
vt 0.999910 0.004098
vt 0.674335 0.053263
vn 0.000000 0.000000 1.000000
vn 0.000000 0.000000 1.000000
vn 0.000000 0.000000 1.000000
vn 0.000000 0.000000 1.000000
vn 0.000000 1.000000 0.000000
vn 0.000000 1.000000 0.000000
vn 0.000000 1.000000 0.000000
vn 0.000000 1.000000 0.000000
vn 0.000000 0.000000 -1.000000
vn 0.000000 0.000000 -1.000000
vn 0.000000 0.000000 -1.000000
vn 0.000000 0.000000 -1.000000
vn 0.000000 -1.000000 0.000000
vn 0.000000 -1.000000 0.000000
vn 0.000000 -1.000000 0.000000
vn 0.000000 -1.000000 0.000000
vn 1.000000 0.000000 0.000000
vn 1.000000 0.000000 0.000000
vn 1.000000 0.000000 0.000000
vn 1.000000 0.000000 0.000000
vn -1.000000 0.000000 0.000000
vn -1.000000 0.000000 0.000000
vn -1.000000 0.000000 0.000000
vn -1.000000 0.000000 0.000000
s off
g pCube3
usemtl initialShadingGroup
f 17/17/57 18/18/58 20/19/59 19/20/60
f 19/20/61 20/19/62 22/21/63 21/22/64
f 21/22/65 22/21/66 24/23/67 23/24/68
f 23/24/69 24/23/70 18/18/71 17/17/72
f 18/18/73 24/23/74 22/21/75 20/19/76
f 23/24/77 17/17/78 19/20/79 21/22/80
