# This file uses centimeters as units for non-parametric coordinates.

mtllib Endo's Table.mtl
g default
v -21.862373 0.051379 -5.538804
v -20.481857 0.051379 -5.538804
v -22.535631 16.702787 -4.865547
v -19.808599 16.702787 -4.865547
v -22.535631 16.702787 -7.592578
v -19.808599 16.702787 -7.592578
v -21.862373 0.051379 -6.919320
v -20.481857 0.051379 -6.919320
v -21.862373 0.051379 5.538803
v -20.481857 0.051379 5.538803
v -22.535631 16.702787 4.865545
v -19.808599 16.702787 4.865545
v -22.535631 16.702787 7.592576
v -19.808599 16.702787 7.592576
v -21.862373 0.051379 6.919319
v -20.481857 0.051379 6.919319
v 21.862377 0.051379 -5.538804
v 20.481857 0.051379 -5.538804
v 22.535641 16.702787 -4.865547
v 19.808605 16.702787 -4.865547
v 22.535641 16.702787 -7.592578
v 19.808605 16.702787 -7.592578
v 21.862377 0.051379 -6.919320
v 20.481857 0.051379 -6.919320
v 21.862377 0.051379 5.538803
v 20.481857 0.051379 5.538803
v 22.535641 16.702787 4.865545
v 19.808605 16.702787 4.865545
v 22.535641 16.702787 7.592576
v 19.808605 16.702787 7.592576
v 21.862377 0.051379 6.919319
v 20.481857 0.051379 6.919319
v -24.724466 16.287840 9.482862
v 24.724466 16.287840 9.482862
v -24.724466 17.301714 9.482862
v 24.724466 17.301714 9.482862
v -24.724466 17.301714 -9.482862
v 24.724466 17.301714 -9.482862
v -24.724466 16.287840 -9.482862
v 24.724466 16.287840 -9.482862
vt 0.059750 0.277248
vt 0.373074 0.010089
vt 0.019785 0.399978
vt 0.000000 0.397577
vt 0.059613 0.399963
vt 0.039699 0.400775
vt 0.039654 0.278882
vt 0.383165 0.000002
vt 0.362655 0.010091
vt 0.222181 0.399983
vt 0.202267 0.400790
vt 0.202250 0.278896
vt 0.162569 0.397583
vt 0.222346 0.277267
vt 0.372743 0.000000
vt 0.182353 0.399988
vt 0.393586 0.000001
vt 0.263637 0.399991
vt 0.243853 0.397583
vt 0.303645 0.277275
vt 0.283551 0.400795
vt 0.283549 0.278902
vt 0.383495 0.010089
vt 0.303465 0.399990
vt 0.120999 0.278882
vt 0.404006 0.000000
vt 0.140896 0.399974
vt 0.120982 0.400776
vt 0.101068 0.399969
vt 0.081284 0.397557
vt 0.141096 0.277259
vt 0.393916 0.010089
vt 0.241965 0.397572
vt 0.182153 0.277273
vt 0.372744 0.010089
vt 0.192169 0.278491
vt 0.212331 0.278488
vt 0.362653 0.000002
vt 0.079396 0.397547
vt 0.019557 0.277263
vt 0.373076 0.000000
vt 0.029573 0.278478
vt 0.049735 0.278471
vt 0.383164 0.010091
vt 0.323249 0.397582
vt 0.263452 0.277276
vt 0.393585 0.010091
vt 0.273467 0.278495
vt 0.383497 0.000000
vt 0.293630 0.278494
vt 0.160680 0.397569
vt 0.100903 0.277253
vt 0.393917 0.000000
vt 0.110918 0.278474
vt 0.404006 0.010090
vt 0.131080 0.278477
vt 0.000000 0.400840
vt 0.361391 0.400782
vt 0.361392 0.408192
vt 0.000001 0.408250
vt 0.000025 0.000000
vt 0.361416 0.000066
vt 0.361391 0.138675
vt 0.000000 0.138609
vt 0.861391 0.408112
vt 0.500001 0.408170
vt 0.499999 0.400760
vt 0.861390 0.400702
vt 0.361391 0.277284
vt 0.000000 0.277242
vt 0.000016 0.138633
vt 0.361407 0.138675
vt 0.999999 0.400680
vt 1.000000 0.408090
vn 0.000000 -0.040399 0.999184
vn 0.000000 -0.040399 0.999184
vn 0.000000 -0.040399 0.999184
vn 0.000000 -0.040399 0.999184
vn 0.000000 -0.040399 -0.999184
vn 0.000000 -0.040399 -0.999184
vn 0.000000 -0.040399 -0.999184
vn 0.000000 -0.040399 -0.999184
vn 0.000000 -1.000000 0.000000
vn 0.000000 -1.000000 0.000000
vn 0.000000 -1.000000 0.000000
vn 0.000000 -1.000000 0.000000
vn 0.999184 -0.040400 0.000000
vn 0.999184 -0.040400 0.000000
vn 0.999184 -0.040400 0.000000
vn 0.999184 -0.040400 0.000000
vn -0.999184 -0.040399 0.000000
vn -0.999184 -0.040399 0.000000
vn -0.999184 -0.040399 0.000000
vn -0.999184 -0.040399 0.000000
vn 0.000000 -0.040399 -0.999184
vn 0.000000 -0.040399 -0.999184
vn 0.000000 -0.040399 -0.999184
vn 0.000000 -0.040399 -0.999184
vn 0.000000 -0.040399 0.999184
vn 0.000000 -0.040399 0.999184
vn 0.000000 -0.040399 0.999184
vn 0.000000 -0.040399 0.999184
vn 0.000000 -1.000000 0.000000
vn 0.000000 -1.000000 0.000000
vn 0.000000 -1.000000 0.000000
vn 0.000000 -1.000000 0.000000
vn 0.999184 -0.040400 0.000000
vn 0.999184 -0.040400 0.000000
vn 0.999184 -0.040400 0.000000
vn 0.999184 -0.040400 0.000000
vn -0.999184 -0.040400 0.000000
vn -0.999184 -0.040400 0.000000
vn -0.999184 -0.040400 0.000000
vn -0.999184 -0.040400 0.000000
vn 0.000000 -0.040399 0.999184
vn 0.000000 -0.040399 0.999184
vn 0.000000 -0.040399 0.999184
vn 0.000000 -0.040399 0.999184
vn 0.000000 -0.040400 -0.999184
vn 0.000000 -0.040400 -0.999184
vn 0.000000 -0.040400 -0.999184
vn 0.000000 -0.040400 -0.999184
vn 0.000000 -1.000000 0.000000
vn 0.000000 -1.000000 0.000000
vn 0.000000 -1.000000 0.000000
vn 0.000000 -1.000000 0.000000
vn -0.999184 -0.040399 0.000000
vn -0.999184 -0.040399 0.000000
vn -0.999184 -0.040399 0.000000
vn -0.999184 -0.040399 0.000000
vn 0.999184 -0.040400 0.000000
vn 0.999184 -0.040400 0.000000
vn 0.999184 -0.040400 0.000000
vn 0.999184 -0.040400 0.000000
vn 0.000000 -0.040399 -0.999184
vn 0.000000 -0.040399 -0.999184
vn 0.000000 -0.040399 -0.999184
vn 0.000000 -0.040399 -0.999184
vn 0.000000 -0.040399 0.999184
vn 0.000000 -0.040399 0.999184
vn 0.000000 -0.040399 0.999184
vn 0.000000 -0.040399 0.999184
vn 0.000000 -1.000000 0.000000
vn 0.000000 -1.000000 0.000000
vn 0.000000 -1.000000 0.000000
vn 0.000000 -1.000000 0.000000
vn -0.999184 -0.040399 0.000000
vn -0.999184 -0.040399 0.000000
vn -0.999184 -0.040399 0.000000
vn -0.999184 -0.040399 0.000000
vn 0.999184 -0.040400 0.000000
vn 0.999184 -0.040400 0.000000
vn 0.999184 -0.040400 0.000000
vn 0.999184 -0.040400 0.000000
vn 0.000000 0.000000 1.000000
vn 0.000000 0.000000 1.000000
vn 0.000000 0.000000 1.000000
vn 0.000000 0.000000 1.000000
vn 0.000000 1.000000 0.000000
vn 0.000000 1.000000 0.000000
vn 0.000000 1.000000 0.000000
vn 0.000000 1.000000 0.000000
vn 0.000000 0.000000 -1.000000
vn 0.000000 0.000000 -1.000000
vn 0.000000 0.000000 -1.000000
vn 0.000000 0.000000 -1.000000
vn 0.000000 -1.000000 0.000000
vn 0.000000 -1.000000 0.000000
vn 0.000000 -1.000000 0.000000
vn 0.000000 -1.000000 0.000000
vn 1.000000 0.000000 0.000000
vn 1.000000 0.000000 0.000000
vn 1.000000 0.000000 0.000000
vn 1.000000 0.000000 0.000000
vn -1.000000 0.000000 0.000000
vn -1.000000 0.000000 0.000000
vn -1.000000 0.000000 0.000000
vn -1.000000 0.000000 0.000000
s off
g pCube3
usemtl initialShadingGroup
f 1/40/1 2/42/2 4/3/3 3/4/4
f 5/5/5 6/6/6 8/7/7 7/43/8
f 7/8/9 8/44/10 2/2/11 1/41/12
f 2/42/13 8/7/14 6/6/15 4/3/16
f 7/43/17 1/1/18 3/39/19 5/5/20
f 9/37/21 11/10/22 12/11/23 10/12/24
f 13/13/25 15/34/26 16/36/27 14/16/28
f 15/35/29 9/9/30 10/38/31 16/15/32
f 10/12/33 12/11/34 14/16/35 16/36/36
f 15/14/37 13/33/38 11/10/39 9/37/40
f 17/48/41 19/18/42 20/19/43 18/46/44
f 21/21/45 23/22/46 24/50/47 22/24/48
f 23/49/49 17/17/50 18/47/51 24/23/52
f 18/20/53 20/45/54 22/24/55 24/50/56
f 23/22/57 21/21/58 19/18/59 17/48/60
f 25/25/61 26/56/62 28/27/63 27/28/64
f 29/29/65 30/30/66 32/52/67 31/54/68
f 31/32/69 32/53/70 26/26/71 25/55/72
f 26/56/73 32/31/74 30/51/75 28/27/76
f 31/54/77 25/25/78 27/28/79 29/29/80
f 33/57/81 34/58/82 36/59/83 35/60/84
f 35/61/85 36/62/86 38/63/87 37/64/88
f 37/65/89 38/66/90 40/67/91 39/68/92
f 39/69/93 40/70/94 34/71/95 33/72/96
f 34/58/97 40/67/98 38/66/99 36/59/100
f 39/68/101 33/73/102 35/74/103 37/65/104
